<svg width="53" height="52" viewBox="0 0 53 52" fill="none" xmlns="http://www.w3.org/2000/svg">
<rect x="0.5" width="52" height="52" rx="26" fill="url(#paint0_linear_10146_17425)"/>
<path d="M33.1 18.8996C29.2 14.9996 22.9 14.9996 19 18.8996C15.8 22.0996 15.2 26.9996 17.4 30.8996L16 35.9996L21.3 34.5996C22.8 35.3996 24.4 35.7996 26 35.7996C31.5 35.7996 35.9 31.3996 35.9 25.8996C36 23.2996 34.9 20.7996 33.1 18.8996ZM30.4 32.8996C29.1 33.6996 27.6 34.1996 26 34.1996C24.5 34.1996 23.1 33.7996 21.8 33.0996L21.5 32.8996L18.4 33.6996L19.2 30.6996L19 30.3996C16.6 26.3996 17.8 21.3996 21.7 18.8996C25.6 16.3996 30.6 17.6996 33 21.4996C35.4 25.3996 34.3 30.4996 30.4 32.8996Z" fill="white"/>
<path d="M28.9 27.1998C29.1 27.2998 30.4 27.8998 30.6 27.9998L31 28.1998C31.1 28.5998 31.1 28.9998 30.9 29.3998C30.5 29.9998 29.9 30.4998 29.2 30.5998C28.6 30.6998 28.1 30.6998 27.6 30.4998C27.1 30.3998 26.7 30.1998 26.2 29.9998C24.5 29.1998 23.1 27.8998 22 26.2998C21.4 25.4998 21.1 24.5998 21 23.6998C21 22.8998 21.3 22.1998 21.9 21.5998C22 21.4998 22.3 21.2998 22.5 21.2998H23C23.2 21.2998 23.4 21.2998 23.5 21.9998C23.7 22.4998 24.2 23.6998 24.3 23.7998C24.4 23.8998 24.4 24.0998 24.3 24.1998C24.3 24.2998 24.2 24.4998 24.1 24.5998C23.9 24.6998 23.8 24.8998 23.7 24.9998C23.6 25.0998 23.5 25.2998 23.6 25.4998C24 26.0998 24.5 26.6998 25 27.1998C25.6 27.6998 26.3 28.0998 27 28.3998C27.2 28.4998 27.4 28.4998 27.5 28.2998C27.7 28.0998 28.1 27.4998 28.3 27.2998C28.5 27.0998 28.7 27.0998 28.9 27.1998Z" fill="#087B37"/>
<rect x="0.75" y="0.25" width="51.5" height="51.5" rx="25.75" stroke="#F5F5F5" stroke-opacity="0.1" stroke-width="0.5"/>
<defs>
<linearGradient id="paint0_linear_10146_17425" x1="13.1905" y1="6.36273e-07" x2="38.2619" y2="59.7381" gradientUnits="userSpaceOnUse">
<stop stop-color="#0F1014"/>
<stop offset="1" stop-color="#0F1014" stop-opacity="0"/>
</linearGradient>
</defs>
</svg>
