<svg width="302" height="132" viewBox="0 0 302 132" fill="none" xmlns="http://www.w3.org/2000/svg">
<path d="M87.2726 59.2361L73.9441 30.4121H71.8998L58.5713 59.2361H60.7791L64.4178 51.2227H81.3034L84.9422 59.2361H87.2726ZM80.4039 49.3011H65.3173L72.881 32.7426L80.4039 49.3011ZM109.448 51.8359V51.7542C109.448 49.6554 108.712 47.9927 107.241 46.7662C105.769 45.5124 103.37 44.5448 100.045 43.8633C98.3548 43.509 96.9647 43.1274 95.8744 42.7186C94.7842 42.3097 93.9256 41.86 93.2987 41.3694C92.699 40.8515 92.2766 40.2927 92.0312 39.6931C91.8132 39.0662 91.7042 38.3711 91.7042 37.6079V37.5262C91.7042 36.7902 91.8677 36.0952 92.1948 35.441C92.5219 34.7869 92.9852 34.2145 93.5849 33.7238C94.2118 33.2332 94.9477 32.8516 95.7927 32.5791C96.6649 32.2792 97.6325 32.1293 98.6955 32.1293C100.276 32.1293 101.748 32.3746 103.111 32.8653C104.501 33.3559 105.878 34.1872 107.241 35.3592L108.59 33.683C107.145 32.5109 105.66 31.6387 104.133 31.0663C102.634 30.4939 100.849 30.2077 98.7773 30.2077C97.4417 30.2077 96.2152 30.3985 95.0976 30.7801C93.9801 31.1617 93.0125 31.6932 92.1948 32.3746C91.3771 33.0561 90.7366 33.8601 90.2732 34.7869C89.8098 35.6863 89.5781 36.6676 89.5781 37.7306V37.8123C89.5781 38.9026 89.7553 39.8702 90.1096 40.7152C90.464 41.5602 91.0227 42.3097 91.7859 42.9639C92.5764 43.5908 93.5849 44.1495 94.8114 44.6402C96.038 45.1035 97.5098 45.5124 99.227 45.8667C100.862 46.1938 102.198 46.5618 103.234 46.9706C104.27 47.3522 105.087 47.7883 105.687 48.2789C106.314 48.7696 106.736 49.3147 106.954 49.9143C107.2 50.514 107.322 51.1954 107.322 51.9586V52.0404C107.322 52.8581 107.145 53.6213 106.791 54.3299C106.436 55.0114 105.946 55.611 105.319 56.1289C104.692 56.6195 103.929 57.0147 103.029 57.3145C102.13 57.5871 101.149 57.7234 100.086 57.7234C99.0226 57.7234 98.0414 57.6416 97.1419 57.4781C96.2424 57.2873 95.3838 57.0283 94.5661 56.7013C93.7484 56.3469 92.9443 55.9108 92.1539 55.3929C91.3907 54.8478 90.6139 54.2073 89.8234 53.4713L88.4334 55.0659C90.1505 56.5922 91.9222 57.737 93.7484 58.5002C95.6019 59.2634 97.6734 59.645 99.963 59.645C101.353 59.645 102.62 59.4542 103.765 59.0726C104.937 58.691 105.932 58.1595 106.75 57.4781C107.595 56.7967 108.249 55.979 108.712 55.025C109.203 54.0437 109.448 52.9807 109.448 51.8359ZM136.541 59.2361V30.6166H134.415V43.8633H116.098V30.6166H113.972V59.2361H116.098V45.8258H134.415V59.2361H136.541ZM144.994 59.2361V30.6166H142.868V59.2361H144.994ZM175.144 59.2361V30.6166H173.099V55.5156L153.352 30.6166H151.349V59.2361H153.393V33.8056L173.549 59.2361H175.144ZM205.564 55.4338V44.3949H193.952V46.3573H203.519V54.5752C203.002 55.0114 202.402 55.4338 201.721 55.8427C201.039 56.2243 200.303 56.565 199.513 56.8648C198.75 57.1646 197.932 57.4099 197.06 57.6007C196.187 57.7643 195.302 57.8461 194.402 57.8461C192.494 57.8461 190.777 57.519 189.251 56.8648C187.751 56.2106 186.47 55.3112 185.407 54.1664C184.344 53.0216 183.527 51.6588 182.954 50.0779C182.409 48.497 182.137 46.7798 182.137 44.9264V44.8446C182.137 43.1274 182.423 41.492 182.995 39.9384C183.568 38.3847 184.372 37.0219 185.407 35.8499C186.47 34.6778 187.724 33.7511 189.169 33.0697C190.613 32.3883 192.208 32.0476 193.952 32.0476C196.106 32.0476 197.891 32.3746 199.308 33.0288C200.753 33.683 202.034 34.5007 203.152 35.4819L204.542 33.8874C203.833 33.2877 203.097 32.7562 202.334 32.2929C201.598 31.8295 200.807 31.4343 199.962 31.1072C199.145 30.7801 198.245 30.5348 197.264 30.3713C196.31 30.2077 195.247 30.126 194.075 30.126C191.949 30.126 190.014 30.5348 188.269 31.3525C186.525 32.1702 185.026 33.2605 183.772 34.6233C182.545 35.9861 181.591 37.567 180.91 39.366C180.256 41.1377 179.929 42.9911 179.929 44.9264V45.0081C179.929 47.0251 180.256 48.9331 180.91 50.732C181.564 52.5037 182.505 54.0574 183.731 55.3929C184.958 56.7285 186.457 57.7915 188.228 58.582C190.027 59.3452 192.058 59.7268 194.32 59.7268C196.664 59.7268 198.79 59.3043 200.698 58.4593C202.634 57.5871 204.255 56.5786 205.564 55.4338ZM230.04 32.5791V30.6166H207.962V32.5791H217.938V59.2361H220.064V32.5791H230.04ZM259.344 44.9264C259.371 44.8991 259.371 44.8718 259.344 44.8446C259.344 42.8821 259.003 41.015 258.322 39.2433C257.64 37.4716 256.673 35.918 255.419 34.5824C254.165 33.2196 252.652 32.1429 250.881 31.3525C249.109 30.5348 247.147 30.126 244.993 30.126C242.813 30.126 240.837 30.5348 239.065 31.3525C237.293 32.1429 235.78 33.2196 234.527 34.5824C233.273 35.9453 232.292 37.5262 231.583 39.3251C230.902 41.0968 230.561 42.9639 230.561 44.9264V45.0081C230.561 46.9706 230.902 48.8377 231.583 50.6094C232.264 52.3811 233.232 53.9483 234.486 55.3112C235.74 56.6468 237.239 57.7234 238.983 58.5411C240.755 59.3315 242.731 59.7268 244.911 59.7268C247.065 59.7268 249.027 59.3315 250.799 58.5411C252.598 57.7234 254.124 56.6331 255.378 55.2703C256.632 53.9075 257.599 52.3402 258.281 50.5685C258.99 48.7696 259.344 46.8888 259.344 44.9264ZM257.136 45.0081C257.136 46.7798 256.836 48.4425 256.237 49.9961C255.637 51.5497 254.792 52.9126 253.702 54.0846C252.639 55.2294 251.358 56.1425 249.859 56.8239C248.387 57.4781 246.765 57.8052 244.993 57.8052C243.222 57.8052 241.586 57.4645 240.087 56.783C238.588 56.1016 237.293 55.1885 236.203 54.0437C235.14 52.8717 234.295 51.5089 233.668 49.9552C233.068 48.3743 232.769 46.698 232.769 44.9264V44.8446C232.769 43.0729 233.068 41.4102 233.668 39.8566C234.268 38.303 235.099 36.9538 236.162 35.809C237.252 34.6369 238.533 33.7238 240.005 33.0697C241.504 32.3883 243.14 32.0476 244.911 32.0476C246.683 32.0476 248.319 32.3883 249.818 33.0697C251.317 33.7511 252.598 34.6778 253.661 35.8499C254.751 36.9946 255.596 38.3575 256.196 39.9384C256.823 41.492 257.136 43.1547 257.136 44.9264V45.0081ZM287.907 59.2361V30.6166H285.862V55.5156L266.115 30.6166H264.112V59.2361H266.156V33.8056L286.312 59.2361H287.907Z" fill="white"/>
<path d="M46.612 30.6166H40.0295L34.1012 49.9961L27.6822 30.5348H22.2854L15.8664 49.9961L9.93809 30.6166H3.19205L12.9636 59.4406H18.4422L24.902 40.7152L31.3619 59.4406H36.8405L46.612 30.6166Z" fill="white"/>
<path d="M55.2114 31.0973L41.2028 60.3794H45.2821L59.2906 31.0973H55.2114Z" fill="#FEDF00"/>
<path d="M59.0147 31.0973L45.0061 60.3794H49.0854L63.0939 31.0973H59.0147Z" fill="#217500"/>
<path d="M44.3483 91.8977V91.7868C44.3483 89.0145 43.8308 86.4271 42.7958 84.0244C41.7978 81.5848 40.3747 79.4779 38.5266 77.7037C36.7153 75.8924 34.553 74.4693 32.0395 73.4344C29.5259 72.3624 26.7721 71.8265 23.7781 71.8265C20.784 71.8265 18.0118 72.3624 15.4613 73.4344C12.9478 74.4693 10.7669 75.9109 8.91875 77.7591C7.10753 79.5703 5.68444 81.6957 4.64946 84.1353C3.61448 86.5379 3.09699 89.1254 3.09699 91.8977V92.0086C3.09699 94.7808 3.596 97.3868 4.59401 99.8263C5.62899 102.229 7.05209 104.336 8.8633 106.147C10.7115 107.921 12.8923 109.344 15.4059 110.416C17.9194 111.451 20.6732 111.969 23.6672 111.969C26.6613 111.969 29.415 111.451 31.9286 110.416C34.479 109.344 36.6599 107.903 38.4711 106.092C40.3193 104.243 41.7609 102.118 42.7958 99.7155C43.8308 97.2759 44.3483 94.6699 44.3483 91.8977ZM35.4216 92.0086C35.4216 93.6719 35.1259 95.2429 34.5345 96.7214C33.98 98.163 33.1853 99.4382 32.1503 100.547C31.1523 101.656 29.9325 102.525 28.491 103.153C27.0494 103.781 25.4784 104.096 23.7781 104.096C22.0408 104.096 20.4514 103.781 19.0098 103.153C17.6052 102.488 16.3669 101.601 15.295 100.492C14.26 99.3828 13.4468 98.0891 12.8554 96.6105C12.3009 95.132 12.0237 93.561 12.0237 91.8977V91.7868C12.0237 90.1234 12.3009 88.5709 12.8554 87.1294C13.4468 85.6508 14.2415 84.3571 15.2395 83.2482C16.2745 82.1393 17.4943 81.2706 18.8989 80.6423C20.3405 80.0139 21.9299 79.6997 23.6672 79.6997C25.3675 79.6997 26.9385 80.0324 28.3801 80.6977C29.8216 81.3261 31.0599 82.1947 32.0949 83.3036C33.1668 84.4125 33.98 85.7063 34.5345 87.1848C35.1259 88.6634 35.4216 90.2343 35.4216 91.8977V92.0086ZM80.3661 111.304V103.541H61.0157V72.4918H52.4771V111.304H80.3661ZM96.2867 111.304V72.4918H87.7481V111.304H96.2867ZM142.137 72.4918H132.933L122.786 99.8263L112.64 72.4918H103.214L118.905 111.581H126.446L142.137 72.4918ZM178.231 111.304V103.708H157.162V95.5571H175.459V87.961H157.162V80.0878H177.954V72.4918H148.679V111.304H178.231ZM215.764 80.365V72.4918H183.605V80.365H195.415V111.304H203.954V80.365H215.764ZM252.271 80.365V72.4918H220.113V80.365H231.922V111.304H240.461V80.365H252.271ZM298.925 91.8977V91.7868C298.925 89.0145 298.407 86.4271 297.372 84.0244C296.374 81.5848 294.951 79.4779 293.103 77.7037C291.292 75.8924 289.129 74.4693 286.616 73.4344C284.102 72.3624 281.349 71.8265 278.354 71.8265C275.36 71.8265 272.588 72.3624 270.038 73.4344C267.524 74.4693 265.343 75.9109 263.495 77.7591C261.684 79.5703 260.261 81.6957 259.226 84.1353C258.191 86.5379 257.673 89.1254 257.673 91.8977V92.0086C257.673 94.7808 258.172 97.3868 259.17 99.8263C260.205 102.229 261.628 104.336 263.44 106.147C265.288 107.921 267.469 109.344 269.982 110.416C272.496 111.451 275.25 111.969 278.244 111.969C281.238 111.969 283.991 111.451 286.505 110.416C289.055 109.344 291.236 107.903 293.047 106.092C294.896 104.243 296.337 102.118 297.372 99.7155C298.407 97.2759 298.925 94.6699 298.925 91.8977ZM289.998 92.0086C289.998 93.6719 289.702 95.2429 289.111 96.7214C288.556 98.163 287.762 99.4382 286.727 100.547C285.729 101.656 284.509 102.525 283.067 103.153C281.626 103.781 280.055 104.096 278.354 104.096C276.617 104.096 275.028 103.781 273.586 103.153C272.182 102.488 270.943 101.601 269.871 100.492C268.836 99.3828 268.023 98.0891 267.432 96.6105C266.877 95.132 266.6 93.561 266.6 91.8977V91.7868C266.6 90.1234 266.877 88.5709 267.432 87.1294C268.023 85.6508 268.818 84.3571 269.816 83.2482C270.851 82.1393 272.071 81.2706 273.475 80.6423C274.917 80.0139 276.506 79.6997 278.244 79.6997C279.944 79.6997 281.515 80.0324 282.956 80.6977C284.398 81.3261 285.636 82.1947 286.671 83.3036C287.743 84.4125 288.556 85.7063 289.111 87.1848C289.702 88.6634 289.998 90.2343 289.998 91.8977V92.0086Z" fill="white"/>
<path d="M6.9935 17.1304C6.22192 17.1304 5.54271 16.9728 4.95587 16.6577C4.36903 16.3425 3.9126 15.9024 3.58658 15.3373C3.27143 14.7613 3.11385 14.0984 3.11385 13.3486V9.24069C3.11385 8.49084 3.27143 7.83336 3.58658 7.26826C3.9126 6.69228 4.36903 6.24672 4.95587 5.93157C5.54271 5.61641 6.22192 5.45884 6.9935 5.45884C7.76509 5.45884 8.4443 5.61641 9.03114 5.93157C9.62885 6.24672 10.0853 6.69228 10.4004 7.26826C10.7265 7.83336 10.8895 8.49084 10.8895 9.24069V13.3486C10.8895 14.0984 10.7265 14.7613 10.4004 15.3373C10.0853 15.9024 9.62885 16.3425 9.03114 16.6577C8.4443 16.9728 7.76509 17.1304 6.9935 17.1304ZM6.9935 16.136C7.81943 16.136 8.48234 15.8861 8.98224 15.3862C9.48214 14.8863 9.73209 14.2234 9.73209 13.3975V9.22438C9.73209 8.39846 9.48214 7.73555 8.98224 7.23565C8.48234 6.72489 7.81943 6.4695 6.9935 6.4695C6.17845 6.4695 5.52097 6.72489 5.02107 7.23565C4.52117 7.73555 4.27122 8.39846 4.27122 9.22438V13.3975C4.27122 14.2234 4.52117 14.8863 5.02107 15.3862C5.52097 15.8861 6.17845 16.136 6.9935 16.136ZM24.3096 5.57294C25.2659 5.57294 26.0321 5.86636 26.608 6.4532C27.1949 7.04004 27.4883 7.81162 27.4883 8.76796C27.4883 9.71342 27.1894 10.4741 26.5917 11.0501C26.0049 11.6261 25.2279 11.9141 24.2607 11.9141H21.082C21.0385 11.9141 21.0168 11.9358 21.0168 11.9793V16.837C21.0168 16.9457 20.9624 17 20.8538 17H20.0224C19.9137 17 19.8594 16.9457 19.8594 16.837V5.73595C19.8594 5.62728 19.9137 5.57294 20.0224 5.57294H24.3096ZM24.1792 10.9523C24.8203 10.9523 25.342 10.7567 25.7441 10.3655C26.1462 9.96337 26.3472 9.4363 26.3472 8.78426C26.3472 8.12135 26.1462 7.58884 25.7441 7.18675C25.342 6.78466 24.8203 6.58361 24.1792 6.58361H21.082C21.0385 6.58361 21.0168 6.60534 21.0168 6.64881V10.8871C21.0168 10.9306 21.0385 10.9523 21.082 10.9523H24.1792ZM37.8199 17C37.7221 17 37.6569 16.962 37.6243 16.8859L35.228 11.8326C35.2171 11.8 35.1954 11.7837 35.1628 11.7837H32.3916C32.3481 11.7837 32.3264 11.8054 32.3264 11.8489V16.837C32.3264 16.9457 32.2721 17 32.1634 17H31.332C31.2234 17 31.169 16.9457 31.169 16.837V5.75225C31.169 5.64358 31.2234 5.58924 31.332 5.58924H35.554C36.4886 5.58924 37.2439 5.88266 37.8199 6.4695C38.3958 7.04547 38.6838 7.80076 38.6838 8.73535C38.6838 9.49607 38.4773 10.1427 38.0644 10.6752C37.6514 11.2077 37.0917 11.55 36.3854 11.7021C36.3419 11.7239 36.331 11.7511 36.3528 11.7837L38.7979 16.8044C38.8088 16.8261 38.8142 16.8533 38.8142 16.8859C38.8142 16.962 38.7708 17 38.6838 17H37.8199ZM32.3916 6.59991C32.3481 6.59991 32.3264 6.62165 32.3264 6.66512V10.7893C32.3264 10.8328 32.3481 10.8545 32.3916 10.8545H35.4236C36.0539 10.8545 36.5647 10.6589 36.9559 10.2677C37.3471 9.87643 37.5427 9.36566 37.5427 8.73535C37.5427 8.10504 37.3471 7.59428 36.9559 7.20305C36.5647 6.80096 36.0539 6.59991 35.4236 6.59991H32.3916ZM46.2199 17.1304C45.4483 17.1304 44.7691 16.9728 44.1822 16.6577C43.5954 16.3425 43.139 15.9024 42.813 15.3373C42.4978 14.7613 42.3402 14.0984 42.3402 13.3486V9.24069C42.3402 8.49084 42.4978 7.83336 42.813 7.26826C43.139 6.69228 43.5954 6.24672 44.1822 5.93157C44.7691 5.61641 45.4483 5.45884 46.2199 5.45884C46.9915 5.45884 47.6707 5.61641 48.2575 5.93157C48.8552 6.24672 49.3117 6.69228 49.6268 7.26826C49.9528 7.83336 50.1158 8.49084 50.1158 9.24069V13.3486C50.1158 14.0984 49.9528 14.7613 49.6268 15.3373C49.3117 15.9024 48.8552 16.3425 48.2575 16.6577C47.6707 16.9728 46.9915 17.1304 46.2199 17.1304ZM46.2199 16.136C47.0458 16.136 47.7087 15.8861 48.2086 15.3862C48.7085 14.8863 48.9585 14.2234 48.9585 13.3975V9.22438C48.9585 8.39846 48.7085 7.73555 48.2086 7.23565C47.7087 6.72489 47.0458 6.4695 46.2199 6.4695C45.4048 6.4695 44.7474 6.72489 44.2475 7.23565C43.7476 7.73555 43.4976 8.39846 43.4976 9.22438V13.3975C43.4976 14.2234 43.7476 14.8863 44.2475 15.3862C44.7474 15.8861 45.4048 16.136 46.2199 16.136ZM57.86 17.1467C57.0993 17.1467 56.4309 17 55.855 16.7066C55.279 16.4023 54.828 15.9785 54.502 15.4351C54.1868 14.8809 54.0292 14.2451 54.0292 13.5279V9.04507C54.0292 8.33869 54.1868 7.71382 54.502 7.17045C54.828 6.62708 55.279 6.20869 55.855 5.91527C56.4309 5.61098 57.0993 5.45884 57.86 5.45884C58.6207 5.45884 59.2891 5.60555 59.865 5.89896C60.441 6.19238 60.8866 6.60534 61.2017 7.13785C61.5277 7.67035 61.6908 8.28436 61.6908 8.97987C61.6908 9.03421 61.6745 9.07768 61.6419 9.11028C61.6093 9.14288 61.5712 9.15918 61.5277 9.15918L60.6964 9.20808C60.5877 9.20808 60.5334 9.15918 60.5334 9.06137V9.01247C60.5334 8.24089 60.2889 7.62688 59.7998 7.17045C59.3108 6.70315 58.6642 6.4695 57.86 6.4695C57.0558 6.4695 56.4092 6.70315 55.9202 7.17045C55.4311 7.63775 55.1866 8.25175 55.1866 9.01247V13.5768C55.1866 14.3375 55.4311 14.9515 55.9202 15.4188C56.4092 15.8861 57.0558 16.1197 57.86 16.1197C58.6642 16.1197 59.3108 15.8915 59.7998 15.4351C60.2889 14.9678 60.5334 14.3484 60.5334 13.5768V13.5442C60.5334 13.4464 60.5877 13.3975 60.6964 13.3975L61.5277 13.4464C61.6364 13.4464 61.6908 13.4953 61.6908 13.5931C61.6908 14.2995 61.5277 14.9243 61.2017 15.4677C60.8866 16.0002 60.441 16.4132 59.865 16.7066C59.2891 17 58.6207 17.1467 57.86 17.1467ZM73.2225 6.4369C73.2225 6.54557 73.1682 6.59991 73.0595 6.59991H67.0607C67.0172 6.59991 66.9955 6.62165 66.9955 6.66512V10.6915C66.9955 10.735 67.0172 10.7567 67.0607 10.7567H71.2664C71.375 10.7567 71.4294 10.811 71.4294 10.9197V11.6043C71.4294 11.713 71.375 11.7674 71.2664 11.7674H67.0607C67.0172 11.7674 66.9955 11.7891 66.9955 11.8326V15.9241C66.9955 15.9676 67.0172 15.9893 67.0607 15.9893H73.0595C73.1682 15.9893 73.2225 16.0437 73.2225 16.1523V16.837C73.2225 16.9457 73.1682 17 73.0595 17H66.0011C65.8924 17 65.8381 16.9457 65.8381 16.837V5.75225C65.8381 5.64358 65.8924 5.58924 66.0011 5.58924H73.0595C73.1682 5.58924 73.2225 5.64358 73.2225 5.75225V6.4369ZM80.5493 17.1304C79.3213 17.1304 78.3487 16.8533 77.6314 16.2991C76.9251 15.7448 76.5719 15.0058 76.5719 14.0821V13.5768C76.5719 13.4681 76.6262 13.4138 76.7349 13.4138H77.5336C77.6423 13.4138 77.6966 13.4681 77.6966 13.5768V14.0169C77.6966 14.6472 77.9575 15.158 78.4791 15.5492C79.0007 15.9296 79.7234 16.1197 80.6471 16.1197C81.4839 16.1197 82.1197 15.9459 82.5544 15.5981C82.9891 15.2395 83.2064 14.7668 83.2064 14.1799C83.2064 13.7996 83.1032 13.4735 82.8967 13.2018C82.7011 12.9302 82.3913 12.6748 81.9675 12.4357C81.5546 12.1966 80.9677 11.9195 80.207 11.6043C79.3919 11.2783 78.7562 10.9958 78.2998 10.7567C77.8542 10.5067 77.4902 10.1916 77.2076 9.81122C76.9359 9.42 76.8001 8.93097 76.8001 8.34413C76.8001 7.43127 77.1152 6.72489 77.7455 6.22499C78.3867 5.71422 79.2615 5.45884 80.37 5.45884C81.5763 5.45884 82.5272 5.74139 83.2227 6.30649C83.9182 6.8716 84.266 7.62145 84.266 8.55604V8.91466C84.266 9.02334 84.2116 9.07768 84.103 9.07768H83.2879C83.1792 9.07768 83.1249 9.02334 83.1249 8.91466V8.62125C83.1249 7.99094 82.8749 7.47474 82.375 7.07264C81.886 6.67055 81.2014 6.4695 80.3211 6.4695C79.5495 6.4695 78.9573 6.62708 78.5443 6.94223C78.1313 7.25739 77.9249 7.71382 77.9249 8.31152C77.9249 8.70275 78.0227 9.02877 78.2183 9.28959C78.4248 9.53954 78.7127 9.76232 79.0822 9.95793C79.4626 10.1427 80.044 10.3872 80.8264 10.6915C81.6198 11.0175 82.2555 11.3218 82.7337 11.6043C83.2227 11.8869 83.6139 12.2347 83.9073 12.6476C84.2116 13.0497 84.3638 13.5442 84.3638 14.131C84.3638 15.0439 84.0269 15.772 83.3531 16.3154C82.6793 16.8587 81.7447 17.1304 80.5493 17.1304ZM91.6175 17.1304C90.3895 17.1304 89.4169 16.8533 88.6996 16.2991C87.9932 15.7448 87.64 15.0058 87.64 14.0821V13.5768C87.64 13.4681 87.6944 13.4138 87.803 13.4138H88.6018C88.7105 13.4138 88.7648 13.4681 88.7648 13.5768V14.0169C88.7648 14.6472 89.0256 15.158 89.5473 15.5492C90.0689 15.9296 90.7916 16.1197 91.7153 16.1197C92.5521 16.1197 93.1878 15.9459 93.6225 15.5981C94.0572 15.2395 94.2746 14.7668 94.2746 14.1799C94.2746 13.7996 94.1713 13.4735 93.9649 13.2018C93.7692 12.9302 93.4595 12.6748 93.0357 12.4357C92.6227 12.1966 92.0359 11.9195 91.2752 11.6043C90.4601 11.2783 89.8244 10.9958 89.368 10.7567C88.9224 10.5067 88.5583 10.1916 88.2758 9.81122C88.0041 9.42 87.8683 8.93097 87.8683 8.34413C87.8683 7.43127 88.1834 6.72489 88.8137 6.22499C89.4549 5.71422 90.3297 5.45884 91.4382 5.45884C92.6445 5.45884 93.5954 5.74139 94.2909 6.30649C94.9864 6.8716 95.3341 7.62145 95.3341 8.55604V8.91466C95.3341 9.02334 95.2798 9.07768 95.1711 9.07768H94.3561C94.2474 9.07768 94.1931 9.02334 94.1931 8.91466V8.62125C94.1931 7.99094 93.9431 7.47474 93.4432 7.07264C92.9542 6.67055 92.2695 6.4695 91.3893 6.4695C90.6177 6.4695 90.0254 6.62708 89.6125 6.94223C89.1995 7.25739 88.993 7.71382 88.993 8.31152C88.993 8.70275 89.0908 9.02877 89.2864 9.28959C89.4929 9.53954 89.7809 9.76232 90.1504 9.95793C90.5308 10.1427 91.1122 10.3872 91.8946 10.6915C92.6879 11.0175 93.3237 11.3218 93.8018 11.6043C94.2909 11.8869 94.6821 12.2347 94.9755 12.6476C95.2798 13.0497 95.432 13.5442 95.432 14.131C95.432 15.0439 95.0951 15.772 94.4213 16.3154C93.7475 16.8587 92.8129 17.1304 91.6175 17.1304ZM102.914 17.1304C102.142 17.1304 101.463 16.9728 100.876 16.6577C100.289 16.3425 99.833 15.9024 99.507 15.3373C99.1918 14.7613 99.0342 14.0984 99.0342 13.3486V9.24069C99.0342 8.49084 99.1918 7.83336 99.507 7.26826C99.833 6.69228 100.289 6.24672 100.876 5.93157C101.463 5.61641 102.142 5.45884 102.914 5.45884C103.685 5.45884 104.365 5.61641 104.952 5.93157C105.549 6.24672 106.006 6.69228 106.321 7.26826C106.647 7.83336 106.81 8.49084 106.81 9.24069V13.3486C106.81 14.0984 106.647 14.7613 106.321 15.3373C106.006 15.9024 105.549 16.3425 104.952 16.6577C104.365 16.9728 103.685 17.1304 102.914 17.1304ZM102.914 16.136C103.74 16.136 104.403 15.8861 104.903 15.3862C105.403 14.8863 105.652 14.2234 105.652 13.3975V9.22438C105.652 8.39846 105.403 7.73555 104.903 7.23565C104.403 6.72489 103.74 6.4695 102.914 6.4695C102.099 6.4695 101.441 6.72489 100.941 7.23565C100.442 7.73555 100.192 8.39846 100.192 9.22438V13.3975C100.192 14.2234 100.442 14.8863 100.941 15.3862C101.441 15.8861 102.099 16.136 102.914 16.136ZM119.366 17.1467C118.605 17.1467 117.937 17 117.361 16.7066C116.785 16.4023 116.334 15.9785 116.008 15.4351C115.693 14.8809 115.535 14.2451 115.535 13.5279V9.04507C115.535 8.33869 115.693 7.71382 116.008 7.17045C116.334 6.62708 116.785 6.20869 117.361 5.91527C117.937 5.61098 118.605 5.45884 119.366 5.45884C120.127 5.45884 120.795 5.60555 121.371 5.89896C121.947 6.19238 122.393 6.60534 122.708 7.13785C123.034 7.67035 123.197 8.28436 123.197 8.97987C123.197 9.03421 123.18 9.07768 123.148 9.11028C123.115 9.14288 123.077 9.15918 123.034 9.15918L122.202 9.20808C122.094 9.20808 122.039 9.15918 122.039 9.06137V9.01247C122.039 8.24089 121.795 7.62688 121.306 7.17045C120.817 6.70315 120.17 6.4695 119.366 6.4695C118.562 6.4695 117.915 6.70315 117.426 7.17045C116.937 7.63775 116.693 8.25175 116.693 9.01247V13.5768C116.693 14.3375 116.937 14.9515 117.426 15.4188C117.915 15.8861 118.562 16.1197 119.366 16.1197C120.17 16.1197 120.817 15.8915 121.306 15.4351C121.795 14.9678 122.039 14.3484 122.039 13.5768V13.5442C122.039 13.4464 122.094 13.3975 122.202 13.3975L123.034 13.4464C123.142 13.4464 123.197 13.4953 123.197 13.5931C123.197 14.2995 123.034 14.9243 122.708 15.4677C122.393 16.0002 121.947 16.4132 121.371 16.7066C120.795 17 120.127 17.1467 119.366 17.1467ZM133.995 17C133.897 17 133.832 16.962 133.799 16.8859L131.403 11.8326C131.392 11.8 131.37 11.7837 131.338 11.7837H128.567C128.523 11.7837 128.501 11.8054 128.501 11.8489V16.837C128.501 16.9457 128.447 17 128.338 17H127.507C127.398 17 127.344 16.9457 127.344 16.837V5.75225C127.344 5.64358 127.398 5.58924 127.507 5.58924H131.729C132.664 5.58924 133.419 5.88266 133.995 6.4695C134.571 7.04547 134.859 7.80076 134.859 8.73535C134.859 9.49607 134.652 10.1427 134.239 10.6752C133.827 11.2077 133.267 11.55 132.56 11.7021C132.517 11.7239 132.506 11.7511 132.528 11.7837L134.973 16.8044C134.984 16.8261 134.989 16.8533 134.989 16.8859C134.989 16.962 134.946 17 134.859 17H133.995ZM128.567 6.59991C128.523 6.59991 128.501 6.62165 128.501 6.66512V10.7893C128.501 10.8328 128.523 10.8545 128.567 10.8545H131.599C132.229 10.8545 132.74 10.6589 133.131 10.2677C133.522 9.87643 133.718 9.36566 133.718 8.73535C133.718 8.10504 133.522 7.59428 133.131 7.20305C132.74 6.80096 132.229 6.59991 131.599 6.59991H128.567ZM139.037 17C138.928 17 138.874 16.9457 138.874 16.837V5.75225C138.874 5.64358 138.928 5.58924 139.037 5.58924H139.868C139.977 5.58924 140.031 5.64358 140.031 5.75225V16.837C140.031 16.9457 139.977 17 139.868 17H139.037ZM151.406 17C151.308 17 151.243 16.9565 151.21 16.8696L150.558 14.8157C150.548 14.7831 150.526 14.7668 150.493 14.7668H145.619C145.587 14.7668 145.565 14.7831 145.554 14.8157L144.902 16.8696C144.869 16.9565 144.804 17 144.706 17H143.826C143.706 17 143.663 16.9402 143.696 16.8207L147.298 5.71965C147.331 5.63271 147.396 5.58924 147.494 5.58924H148.602C148.7 5.58924 148.765 5.63271 148.798 5.71965L152.417 16.8207L152.433 16.8859C152.433 16.962 152.384 17 152.286 17H151.406ZM145.88 13.7398C145.869 13.7615 145.869 13.7833 145.88 13.805C145.902 13.8159 145.923 13.8213 145.945 13.8213H150.151C150.173 13.8213 150.189 13.8159 150.2 13.805C150.221 13.7833 150.227 13.7615 150.216 13.7398L148.097 7.08894C148.086 7.06721 148.07 7.05634 148.048 7.05634C148.026 7.05634 148.01 7.06721 147.999 7.08894L145.88 13.7398ZM161.904 5.58924C162.012 5.58924 162.067 5.64358 162.067 5.75225V6.4532C162.067 6.56188 162.012 6.61621 161.904 6.61621H158.709C158.665 6.61621 158.644 6.63795 158.644 6.68142V16.837C158.644 16.9457 158.589 17 158.481 17H157.649C157.541 17 157.486 16.9457 157.486 16.837V6.68142C157.486 6.63795 157.464 6.61621 157.421 6.61621H154.356C154.248 6.61621 154.193 6.56188 154.193 6.4532V5.75225C154.193 5.64358 154.248 5.58924 154.356 5.58924H161.904ZM166.017 17C165.908 17 165.854 16.9457 165.854 16.837V5.75225C165.854 5.64358 165.908 5.58924 166.017 5.58924H166.849C166.957 5.58924 167.012 5.64358 167.012 5.75225V16.837C167.012 16.9457 166.957 17 166.849 17H166.017ZM174.425 17C174.327 17 174.262 16.9565 174.229 16.8696L170.676 5.76856L170.66 5.70335C170.66 5.62728 170.708 5.58924 170.806 5.58924H171.686C171.784 5.58924 171.85 5.63271 171.882 5.71965L174.849 15.2721C174.86 15.2938 174.876 15.3047 174.898 15.3047C174.92 15.3047 174.936 15.2938 174.947 15.2721L177.914 5.71965C177.946 5.63271 178.011 5.58924 178.109 5.58924H178.973C179.093 5.58924 179.136 5.64901 179.103 5.76856L175.517 16.8696C175.485 16.9565 175.419 17 175.322 17H174.425ZM185.924 17.1304C185.152 17.1304 184.473 16.9728 183.886 16.6577C183.299 16.3425 182.843 15.9024 182.517 15.3373C182.202 14.7613 182.044 14.0984 182.044 13.3486V9.24069C182.044 8.49084 182.202 7.83336 182.517 7.26826C182.843 6.69228 183.299 6.24672 183.886 5.93157C184.473 5.61641 185.152 5.45884 185.924 5.45884C186.696 5.45884 187.375 5.61641 187.962 5.93157C188.559 6.24672 189.016 6.69228 189.331 7.26826C189.657 7.83336 189.82 8.49084 189.82 9.24069V13.3486C189.82 14.0984 189.657 14.7613 189.331 15.3373C189.016 15.9024 188.559 16.3425 187.962 16.6577C187.375 16.9728 186.696 17.1304 185.924 17.1304ZM185.924 16.136C186.75 16.136 187.413 15.8861 187.913 15.3862C188.413 14.8863 188.663 14.2234 188.663 13.3975V9.22438C188.663 8.39846 188.413 7.73555 187.913 7.23565C187.413 6.72489 186.75 6.4695 185.924 6.4695C185.109 6.4695 184.451 6.72489 183.952 7.23565C183.452 7.73555 183.202 8.39846 183.202 9.22438V13.3975C183.202 14.2234 183.452 14.8863 183.952 15.3862C184.451 15.8861 185.109 16.136 185.924 16.136ZM199.067 17C198.958 17 198.904 16.9457 198.904 16.837V5.75225C198.904 5.64358 198.958 5.58924 199.067 5.58924H202.914C203.99 5.58924 204.843 5.8718 205.473 6.4369C206.114 7.002 206.435 7.76816 206.435 8.73535V13.8539C206.435 14.8211 206.114 15.5872 205.473 16.1523C204.843 16.7174 203.99 17 202.914 17H199.067ZM200.061 15.9241C200.061 15.9676 200.083 15.9893 200.127 15.9893H202.963C203.669 15.9893 204.229 15.7829 204.642 15.3699C205.066 14.9569 205.278 14.4027 205.278 13.7072V8.89836C205.278 8.19198 205.071 7.63231 204.658 7.21935C204.245 6.80639 203.68 6.59991 202.963 6.59991H200.127C200.083 6.59991 200.061 6.62165 200.061 6.66512V15.9241ZM217.914 6.4369C217.914 6.54557 217.859 6.59991 217.751 6.59991H211.752C211.708 6.59991 211.687 6.62165 211.687 6.66512V10.6915C211.687 10.735 211.708 10.7567 211.752 10.7567H215.958C216.066 10.7567 216.121 10.811 216.121 10.9197V11.6043C216.121 11.713 216.066 11.7674 215.958 11.7674H211.752C211.708 11.7674 211.687 11.7891 211.687 11.8326V15.9241C211.687 15.9676 211.708 15.9893 211.752 15.9893H217.751C217.859 15.9893 217.914 16.0437 217.914 16.1523V16.837C217.914 16.9457 217.859 17 217.751 17H210.692C210.584 17 210.529 16.9457 210.529 16.837V5.75225C210.529 5.64358 210.584 5.58924 210.692 5.58924H217.751C217.859 5.58924 217.914 5.64358 217.914 5.75225V6.4369Z" fill="white"/>
</svg>
