<svg width="249" height="86" viewBox="0 0 249 86" fill="none" xmlns="http://www.w3.org/2000/svg">
<path d="M149.393 61.9998V15.7536H146.156L127.591 43.1049L109.027 15.7536H105.79V61.9998H109.093V21.8317L127.393 48.4562H127.657L145.958 21.8317V61.9998H149.393ZM195.848 49.3812V49.249C195.848 47.6634 195.562 46.2761 194.989 45.0869C194.417 43.8536 193.646 42.7966 192.677 41.9157C191.752 40.9908 190.651 40.242 189.374 39.6695C188.097 39.0529 186.775 38.5684 185.41 38.216C186.335 37.8196 187.26 37.3351 188.185 36.7626C189.154 36.146 190.012 35.3972 190.761 34.5163C191.51 33.6354 192.105 32.6004 192.545 31.4112C193.029 30.222 193.272 28.8347 193.272 27.2491V27.1169C193.272 25.3992 192.897 23.8357 192.149 22.4263C191.444 21.0169 190.431 19.8277 189.11 18.8587C187.832 17.8457 186.269 17.0749 184.419 16.5464C182.569 16.0179 180.521 15.7536 178.275 15.7536H159.182V61.9998H179.266C181.776 61.9998 184.044 61.7135 186.071 61.1409C188.097 60.5243 189.836 59.6874 191.29 58.6304C192.743 57.5293 193.866 56.208 194.659 54.6664C195.452 53.0809 195.848 51.3191 195.848 49.3812ZM189.77 27.5794C189.77 29.1209 189.462 30.4863 188.845 31.6755C188.273 32.8647 187.458 33.8557 186.401 34.6485C185.344 35.4412 184.089 36.0579 182.635 36.4983C181.182 36.8947 179.596 37.0929 177.878 37.0929H162.617V18.9248H178.209C181.952 18.9248 184.815 19.7176 186.797 21.3031C188.779 22.8447 189.77 24.8927 189.77 27.4473V27.5794ZM192.347 49.3812C192.347 52.2881 191.18 54.6004 188.845 56.3181C186.511 57.9918 183.362 58.8286 179.398 58.8286H162.617V40.2641H178.275C182.855 40.2641 186.335 41.0569 188.713 42.6424C191.136 44.184 192.347 46.3862 192.347 49.249V49.3812ZM245.31 61.9998L223.773 15.4233H220.47L198.932 61.9998H202.5L208.38 49.0508H235.665L241.545 61.9998H245.31ZM234.211 45.9457H209.833L222.055 19.189L234.211 45.9457Z" fill="white"/>
<path d="M72.5787 15.7538H61.9421L52.3625 47.0691L41.9902 15.6217H33.2695L22.8971 47.0691L13.3175 15.7538H2.41667L18.2064 62.3303H27.0593L37.4977 32.0721L47.9361 62.3303H56.7889L72.5787 15.7538Z" fill="white"/>
<path d="M86.1727 15.4575L63.5364 62.7742H70.128L92.7644 15.4575H86.1727Z" fill="#FEDF00"/>
<path d="M92.3184 15.4575L69.6821 62.7742H76.2737L98.9101 15.4575H92.3184Z" fill="#217500"/>
</svg>
