<svg width="48" height="49" viewBox="0 0 48 49" fill="none" xmlns="http://www.w3.org/2000/svg">
<path d="M24 16.5V18.1157M24 18.1157C22.0101 17.9269 20.2337 19.362 20 21.3472C20 22.7152 20.9656 23.8931 22.3071 24.1614L25.6929 24.8386C27.0344 25.1069 28 26.2848 28 27.6528C27.7663 29.638 25.9899 31.0731 24 30.8843M24 18.1157C25.7138 18.0083 27.2963 19.034 27.8981 20.6422M24 32.5V30.8843M24 30.8843C22.2862 30.9917 20.7037 29.966 20.1019 28.3578M40 26.5417V13.6388C39.9853 12.6171 39.2116 11.7665 38.1958 11.6554C33.952 11.3329 29.8833 9.82823 26.4508 7.31186C24.9963 6.22938 23.0038 6.22938 21.5493 7.31186C18.1168 9.82824 14.0481 11.3329 9.80424 11.6554C8.78847 11.7664 8.01469 12.617 8 13.6388V26.5417C8 34.0835 17.3002 39.7053 21.7273 41.9548C23.1579 42.6831 24.8509 42.6816 26.2802 41.9509C30.7103 39.6992 40 34.0911 40 26.5417Z" stroke="url(#paint0_linear_10146_17869)" stroke-width="2.5" stroke-linecap="round" stroke-linejoin="round"/>
<defs>
<linearGradient id="paint0_linear_10146_17869" x1="10.5" y1="43" x2="5.56336" y2="36.8556" gradientUnits="userSpaceOnUse">
<stop stop-color="#2733FE"/>
<stop offset="1" stop-color="#747CFF"/>
</linearGradient>
</defs>
</svg>
