<svg width="319" height="66" viewBox="0 0 319 66" fill="none" xmlns="http://www.w3.org/2000/svg">
<path d="M25.672 7.79515C27.159 7.70936 28.5746 7.2518 28.5746 5.43588C28.5746 3.73435 27.5594 3.00512 25.2001 3.00512H21.125V13.0141H25.2859C27.8739 13.0141 28.9892 12.1991 28.9892 10.2974C28.9892 8.2956 27.3306 7.89524 25.672 7.79515ZM25.0142 11.7988H22.898V8.36709H25.0142C26.4727 8.36709 27.1018 8.89614 27.1018 10.1258C27.1018 11.3126 26.487 11.7988 25.0142 11.7988ZM22.898 4.2062H24.9284C26.1581 4.2062 26.6586 4.63516 26.6586 5.67896C26.6586 6.76565 26.1295 7.2375 24.9141 7.2375H22.8837V4.2062H22.898Z" fill="white"/>
<path d="M46.4397 2.70485C42.9794 2.70485 41.5066 4.29199 41.5066 7.99533C41.5066 11.6987 42.9794 13.2858 46.4397 13.2858C49.8856 13.2858 51.3727 11.6987 51.3727 7.99533C51.3727 4.29199 49.8856 2.70485 46.4397 2.70485ZM46.4397 4.14901C48.5987 4.14901 49.4995 5.27859 49.4995 7.99533C49.4995 10.7121 48.5987 11.8416 46.4397 11.8416C44.2806 11.8416 43.3798 10.7121 43.3798 7.99533C43.3798 5.27859 44.2806 4.14901 46.4397 4.14901ZM47.512 0.560059H45.2243L44.2377 2.27589H45.3959L46.3682 0.760239L47.3405 2.27589H48.4986L47.512 0.560059Z" fill="white"/>
<path d="M71.4056 2.99082V12.4565L67.4877 2.99082H64.4564V12.9998H66.1723V3.53417L70.0901 12.9998H73.1214V2.99082H71.4056Z" fill="white"/>
<path d="M86.6355 9.33939C86.6355 12.099 87.8508 13.2858 90.7105 13.2858C93.556 13.2858 94.7856 12.099 94.7856 9.33939V2.99082H92.984V9.33939C92.984 11.0981 92.312 11.8416 90.7105 11.8416C89.0948 11.8416 88.4228 11.0981 88.4228 9.33939V2.99082H86.6355V9.33939Z" fill="white"/>
<path d="M109.577 5.56457C109.577 4.42068 110.178 3.96312 111.665 3.96312C113.195 3.96312 113.824 4.52077 113.824 5.85054H115.454C115.454 3.64855 114.31 2.70485 111.665 2.70485C109.005 2.70485 107.876 3.64855 107.876 5.83624C107.876 9.41089 113.881 7.88094 113.881 10.4261C113.881 11.5557 113.252 12.0275 111.665 12.0275C110.02 12.0275 109.348 11.4842 109.348 10.1401H107.733C107.733 12.3421 108.905 13.2858 111.665 13.2858C114.41 13.2858 115.597 12.3421 115.597 10.1544C115.597 6.35099 109.577 7.78085 109.577 5.56457Z" fill="white"/>
<path d="M151.003 4.34919V2.99082H144.054V12.9998H151.003V11.6415H145.841V8.46718H150.431V7.12311H145.841V4.34919H151.003Z" fill="white"/>
<path d="M165.219 5.56457C165.219 4.42068 165.819 3.96312 167.306 3.96312C168.836 3.96312 169.465 4.52077 169.465 5.85054H171.095C171.095 3.64855 169.952 2.70485 167.306 2.70485C164.647 2.70485 163.517 3.64855 163.517 5.83624C163.517 9.41089 169.523 7.88094 169.523 10.4261C169.523 11.5557 168.893 12.0275 167.306 12.0275C165.662 12.0275 164.99 11.4842 164.99 10.1401H163.374C163.374 12.3421 164.547 13.2858 167.306 13.2858C170.052 13.2858 171.238 12.3421 171.238 10.1544C171.238 6.35099 165.219 7.78085 165.219 5.56457Z" fill="white"/>
<path d="M192.191 6.16511C192.191 4.30629 191.133 2.99082 188.545 2.99082H184.327V12.9998H186.115V9.35369H188.545C191.133 9.35369 192.191 8.03822 192.191 6.16511ZM190.39 6.16511C190.39 7.35189 189.818 7.99533 188.46 7.99533H186.115V4.34919H188.46C189.818 4.34919 190.39 4.99262 190.39 6.16511Z" fill="white"/>
<path d="M212.076 4.34919V2.99082H205.127V12.9998H212.076V11.6415H206.915V8.46718H211.504V7.12311H206.915V4.34919H212.076Z" fill="white"/>
<path d="M232.097 9.68256C231.625 11.2268 230.839 11.8416 229.323 11.8416C227.222 11.8416 226.321 10.7121 226.321 7.99533C226.321 5.27859 227.222 4.14901 229.323 4.14901C230.939 4.14901 231.726 4.76385 232.097 6.30809H233.885C233.441 3.79154 232.097 2.70485 229.323 2.70485C225.92 2.70485 224.448 4.29199 224.448 7.99533C224.448 11.6987 225.92 13.2858 229.323 13.2858C231.869 13.2858 233.227 12.1991 233.885 9.68256H232.097Z" fill="white"/>
<path d="M246.965 2.99082V12.9998H248.752V2.99082H246.965Z" fill="white"/>
<path d="M268.851 12.9998H270.724L267.893 2.99082H264.533L261.545 12.9998H263.346L264.018 10.7264H268.208L268.851 12.9998ZM266.149 3.50557L267.865 9.52528H264.376L266.149 3.50557Z" fill="white"/>
<path d="M289.901 11.5557H285.311V2.99082H283.524V12.9998H289.901V11.5557Z" fill="white"/>
<path d="M21.3933 27.7678C22.0047 27.7943 22.7889 27.8209 23.746 27.8475C24.7296 27.8741 25.6999 27.8874 26.6569 27.8874C27.9329 27.8874 29.1425 27.8741 30.2856 27.8475C31.4553 27.8209 32.2794 27.8076 32.7579 27.8076C36.134 27.8076 38.6595 28.5387 40.3343 30.0008C42.0091 31.4629 42.8465 33.3504 42.8465 35.6632C42.8465 36.6202 42.6737 37.6304 42.3281 38.6937C42.0091 39.7305 41.4375 40.7008 40.6134 41.6047C39.7893 42.4819 38.6728 43.1997 37.2639 43.758C35.8549 44.3162 34.0605 44.5954 31.8806 44.5954H27.9728V43.7978H31.4819C33.263 43.7978 34.6188 43.439 35.5492 42.7212C36.5062 42.0034 37.1442 41.0597 37.4632 39.89C37.8088 38.7203 37.9816 37.4576 37.9816 36.1018C37.9816 33.5763 37.5297 31.6889 36.6258 30.4394C35.722 29.19 34.1535 28.5653 31.9205 28.5653C30.7774 28.5653 30.0198 28.7912 29.6476 29.2432C29.302 29.6951 29.1292 30.6122 29.1292 31.9946V51.6932C29.1292 52.6769 29.2355 53.4212 29.4482 53.9263C29.6609 54.4048 30.0596 54.7238 30.6445 54.8833C31.2293 55.0428 32.0933 55.1359 33.2364 55.1624V55.9998C32.5186 55.9467 31.5882 55.9201 30.4451 55.9201C29.302 55.8935 28.119 55.8802 26.8961 55.8802C25.8328 55.8802 24.8093 55.8935 23.8257 55.9201C22.8687 55.9201 22.0579 55.9467 21.3933 55.9998V55.2023C22.2971 55.1492 22.975 55.0428 23.427 54.8833C23.8789 54.7238 24.1713 54.4048 24.3042 53.9263C24.4637 53.4478 24.5435 52.73 24.5435 51.773V31.9946C24.5435 31.011 24.4637 30.2932 24.3042 29.8413C24.1713 29.3628 23.8656 29.0438 23.3871 28.8843C22.9351 28.6982 22.2706 28.5919 21.3933 28.5653V27.7678Z" fill="white"/>
<path d="M45.3811 27.7678C45.9925 27.7943 46.7767 27.8209 47.7338 27.8475C48.7174 27.8741 49.6877 27.8874 50.6447 27.8874C51.9207 27.8874 53.1303 27.8741 54.2734 27.8475C55.4431 27.8209 56.2672 27.8076 56.7457 27.8076C59.0053 27.8076 60.8795 28.1001 62.3682 28.6849C63.8835 29.2697 65 30.0938 65.7177 31.1572C66.4621 32.194 66.8343 33.3902 66.8343 34.746C66.8343 35.5701 66.6615 36.4474 66.3159 37.3778C65.9969 38.2817 65.4253 39.1324 64.6012 39.9299C63.7771 40.7008 62.6606 41.3388 61.2517 41.8439C59.8427 42.349 58.0483 42.6016 55.8684 42.6016H52.0403V41.804H55.4697C57.2508 41.804 58.6066 41.5116 59.537 40.9268C60.494 40.3153 61.132 39.5178 61.451 38.5342C61.7966 37.524 61.9694 36.4075 61.9694 35.1847C61.9694 33.0845 61.5175 31.4629 60.6136 30.3198C59.7098 29.1501 58.1413 28.5653 55.9083 28.5653C54.7652 28.5653 54.0075 28.7912 53.6354 29.2432C53.2898 29.6951 53.117 30.6122 53.117 31.9946V51.773C53.117 52.73 53.1967 53.4478 53.3562 53.9263C53.5157 54.4048 53.8215 54.7238 54.2734 54.8833C54.7253 55.0428 55.3899 55.1492 56.2672 55.2023V55.9998C55.6292 55.9467 54.8184 55.9201 53.8348 55.9201C52.8777 55.8935 51.8941 55.8802 50.8839 55.8802C49.7674 55.8802 48.7174 55.8935 47.7338 55.9201C46.7767 55.9201 45.9925 55.9467 45.3811 55.9998V55.2023C46.2849 55.1492 46.9628 55.0428 47.4147 54.8833C47.8667 54.7238 48.1591 54.4048 48.292 53.9263C48.4515 53.4478 48.5313 52.73 48.5313 51.773V31.9946C48.5313 31.011 48.4515 30.2932 48.292 29.8413C48.1591 29.3628 47.8534 29.0438 47.3749 28.8843C46.9229 28.6982 46.2583 28.5919 45.3811 28.5653V27.7678ZM52.1201 41.9237C53.4759 41.9768 54.5658 42.0433 55.3899 42.1231C56.214 42.1762 56.9052 42.2294 57.4635 42.2826C58.0217 42.3357 58.5401 42.4022 59.0186 42.4819C61.0124 42.7478 62.4612 43.2794 63.3651 44.077C64.2955 44.8745 64.9335 46.0973 65.2791 47.7455L66.276 51.8129C66.5153 52.956 66.7678 53.7668 67.0336 54.2453C67.3261 54.7238 67.7514 54.9631 68.3097 54.9631C68.735 54.9365 69.0806 54.8169 69.3464 54.6042C69.6389 54.3649 69.9446 54.0459 70.2636 53.6472L70.8218 54.0858C70.2104 54.9099 69.5724 55.5346 68.9078 55.96C68.2432 56.3587 67.3527 56.5581 66.2361 56.5581C65.093 56.5581 64.1094 56.2657 63.2853 55.6808C62.4878 55.0694 61.9163 53.9263 61.5707 52.2515L60.7731 48.2639C60.5339 47.1208 60.268 46.1372 59.9756 45.3131C59.6832 44.4624 59.2712 43.7978 58.7395 43.3193C58.2344 42.8408 57.49 42.6016 56.5064 42.6016H52.1998L52.1201 41.9237Z" fill="white"/>
<path d="M82.7083 27.7678V28.5653C81.831 28.5919 81.1664 28.6982 80.7145 28.8843C80.2626 29.0438 79.9568 29.3628 79.7973 29.8413C79.6378 30.2932 79.5581 31.011 79.5581 31.9946V51.773C79.5581 52.73 79.6378 53.4478 79.7973 53.9263C79.9568 54.4048 80.2626 54.7238 80.7145 54.8833C81.1664 55.0428 81.831 55.1492 82.7083 55.2023V55.9998C82.0703 55.9467 81.2594 55.9201 80.2758 55.9201C79.3188 55.8935 78.3352 55.8802 77.325 55.8802C76.2085 55.8802 75.1584 55.8935 74.1748 55.9201C73.2178 55.9201 72.4336 55.9467 71.8222 55.9998V55.2023C72.726 55.1492 73.4039 55.0428 73.8558 54.8833C74.3078 54.7238 74.6002 54.4048 74.7331 53.9263C74.8926 53.4478 74.9724 52.73 74.9724 51.773V31.9946C74.9724 31.011 74.8926 30.2932 74.7331 29.8413C74.6002 29.3628 74.2945 29.0438 73.816 28.8843C73.364 28.6982 72.6994 28.5919 71.8222 28.5653V27.7678C72.4336 27.7943 73.2178 27.8209 74.1748 27.8475C75.1584 27.8741 76.2085 27.8874 77.325 27.8874C78.3352 27.8874 79.3188 27.8741 80.2758 27.8475C81.2594 27.8209 82.0703 27.7943 82.7083 27.7678Z" fill="white"/>
<path d="M118.181 27.7678V28.5653C117.277 28.5919 116.599 28.6982 116.148 28.8843C115.696 29.0438 115.39 29.3628 115.23 29.8413C115.098 30.2932 115.031 31.011 115.031 31.9946V51.773C115.031 52.73 115.098 53.4478 115.23 53.9263C115.39 54.4048 115.696 54.7238 116.148 54.8833C116.599 55.0428 117.277 55.1492 118.181 55.2023V55.9998C117.517 55.9467 116.693 55.9201 115.709 55.9201C114.725 55.8935 113.728 55.8802 112.718 55.8802C111.602 55.8802 110.552 55.8935 109.568 55.9201C108.584 55.9201 107.8 55.9467 107.215 55.9998V55.2023C108.119 55.1492 108.797 55.0428 109.249 54.8833C109.728 54.7238 110.047 54.4048 110.206 53.9263C110.366 53.4478 110.445 52.73 110.445 51.773V29.9609L110.645 30.0407L100.835 56.1593H100.197L89.9093 30.3198V50.7362C89.9093 51.8528 89.989 52.73 90.1485 53.368C90.308 53.9795 90.6536 54.4181 91.1853 54.6839C91.717 54.9498 92.5278 55.1226 93.6177 55.2023V55.9998C93.1126 55.9467 92.4613 55.9201 91.6638 55.9201C90.8929 55.8935 90.1618 55.8802 89.4706 55.8802C88.8061 55.8802 88.1415 55.8935 87.4769 55.9201C86.8123 55.9201 86.2673 55.9467 85.8419 55.9998V55.2023C86.7192 55.1226 87.3838 54.9631 87.8357 54.7238C88.2877 54.458 88.5934 54.0193 88.7529 53.4079C88.9124 52.7965 88.9921 51.9591 88.9921 50.8957V31.9946C88.9921 31.011 88.9124 30.2932 88.7529 29.8413C88.5934 29.3628 88.2877 29.0438 87.8357 28.8843C87.3838 28.6982 86.7192 28.5919 85.8419 28.5653V27.7678C86.2673 27.7943 86.8123 27.8209 87.4769 27.8475C88.1415 27.8741 88.8061 27.8874 89.4706 27.8874C90.2416 27.8874 91.0125 27.8741 91.7834 27.8475C92.581 27.8209 93.2589 27.7943 93.8171 27.7678L102.63 50.4172L101.872 50.9356L110.525 27.8874C110.871 27.8874 111.23 27.8874 111.602 27.8874C111.974 27.8874 112.346 27.8874 112.718 27.8874C113.728 27.8874 114.725 27.8741 115.709 27.8475C116.693 27.8209 117.517 27.7943 118.181 27.7678Z" fill="white"/>
<path d="M141.654 27.7678C141.548 28.7779 141.468 29.7615 141.415 30.7186C141.388 31.649 141.375 32.3668 141.375 32.8719C141.375 33.377 141.388 33.8555 141.415 34.3074C141.441 34.7593 141.468 35.1315 141.495 35.4239H140.577C140.391 33.7225 140.099 32.3801 139.7 31.3965C139.328 30.4129 138.756 29.7217 137.985 29.3229C137.241 28.8976 136.191 28.6849 134.835 28.6849H132.084C131.233 28.6849 130.582 28.7646 130.13 28.9242C129.705 29.0571 129.412 29.3495 129.253 29.8014C129.093 30.2268 129.013 30.9047 129.013 31.8351V51.9325C129.013 52.8364 129.093 53.5142 129.253 53.9662C129.412 54.4181 129.705 54.7238 130.13 54.8833C130.582 55.0162 131.233 55.0827 132.084 55.0827H134.676C136.191 55.0827 137.387 54.8434 138.265 54.3649C139.168 53.8864 139.846 53.1022 140.298 52.0123C140.777 50.9223 141.136 49.4336 141.375 47.5462H142.292C142.212 48.3171 142.172 49.3273 142.172 50.5767C142.172 51.1084 142.186 51.8793 142.212 52.8895C142.266 53.8997 142.345 54.9365 142.452 55.9998C141.096 55.9467 139.567 55.9201 137.866 55.9201C136.164 55.8935 134.649 55.8802 133.32 55.8802C132.709 55.8802 131.924 55.8802 130.967 55.8802C130.01 55.8802 128.974 55.8935 127.857 55.9201C126.767 55.9201 125.651 55.9334 124.507 55.96C123.391 55.96 122.314 55.9733 121.278 55.9998V55.2023C122.181 55.1492 122.859 55.0428 123.311 54.8833C123.763 54.7238 124.056 54.4048 124.188 53.9263C124.348 53.4478 124.428 52.73 124.428 51.773V31.9946C124.428 31.011 124.348 30.2932 124.188 29.8413C124.056 29.3628 123.75 29.0438 123.271 28.8843C122.819 28.6982 122.155 28.5919 121.278 28.5653V27.7678C122.314 27.7943 123.391 27.8209 124.507 27.8475C125.651 27.8475 126.767 27.8608 127.857 27.8874C128.974 27.8874 130.01 27.8874 130.967 27.8874C131.924 27.8874 132.709 27.8874 133.32 27.8874C134.543 27.8874 135.925 27.8874 137.467 27.8874C139.036 27.8608 140.431 27.8209 141.654 27.7678ZM135.035 41.4053C135.035 41.4053 135.035 41.5382 135.035 41.804C135.035 42.0699 135.035 42.2028 135.035 42.2028H127.817C127.817 42.2028 127.817 42.0699 127.817 41.804C127.817 41.5382 127.817 41.4053 127.817 41.4053H135.035ZM136.191 36.1417C136.085 37.657 136.032 38.8134 136.032 39.6109C136.058 40.4084 136.071 41.1394 136.071 41.804C136.071 42.4686 136.085 43.1997 136.111 43.9972C136.138 44.7947 136.204 45.9511 136.311 47.4664H135.394C135.261 46.5891 135.088 45.7518 134.875 44.9542C134.663 44.1301 134.277 43.4655 133.719 42.9604C133.187 42.4553 132.35 42.2028 131.207 42.2028V41.4053C132.057 41.4053 132.722 41.2325 133.2 40.8869C133.705 40.5413 134.091 40.0894 134.357 39.5311C134.623 38.9729 134.809 38.4013 134.915 37.8165C135.048 37.205 135.168 36.6468 135.274 36.1417H136.191Z" fill="white"/>
<path d="M156.774 27.7678V28.5653C155.897 28.5919 155.233 28.6982 154.781 28.8843C154.329 29.0438 154.023 29.3628 153.864 29.8413C153.704 30.2932 153.624 31.011 153.624 31.9946V51.773C153.624 52.73 153.704 53.4478 153.864 53.9263C154.023 54.4048 154.329 54.7238 154.781 54.8833C155.233 55.0428 155.897 55.1492 156.774 55.2023V55.9998C156.136 55.9467 155.326 55.9201 154.342 55.9201C153.385 55.8935 152.401 55.8802 151.391 55.8802C150.275 55.8802 149.225 55.8935 148.241 55.9201C147.284 55.9201 146.5 55.9467 145.888 55.9998V55.2023C146.792 55.1492 147.47 55.0428 147.922 54.8833C148.374 54.7238 148.666 54.4048 148.799 53.9263C148.959 53.4478 149.039 52.73 149.039 51.773V31.9946C149.039 31.011 148.959 30.2932 148.799 29.8413C148.666 29.3628 148.361 29.0438 147.882 28.8843C147.43 28.6982 146.766 28.5919 145.888 28.5653V27.7678C146.5 27.7943 147.284 27.8209 148.241 27.8475C149.225 27.8741 150.275 27.8874 151.391 27.8874C152.401 27.8874 153.385 27.8741 154.342 27.8475C155.326 27.8209 156.136 27.7943 156.774 27.7678Z" fill="white"/>
<path d="M159.868 27.7678C160.48 27.7943 161.264 27.8209 162.221 27.8475C163.205 27.8741 164.175 27.8874 165.132 27.8874C166.408 27.8874 167.617 27.8741 168.761 27.8475C169.93 27.8209 170.754 27.8076 171.233 27.8076C173.493 27.8076 175.367 28.1001 176.855 28.6849C178.371 29.2697 179.487 30.0938 180.205 31.1572C180.949 32.194 181.321 33.3902 181.321 34.746C181.321 35.5701 181.149 36.4474 180.803 37.3778C180.484 38.2817 179.913 39.1324 179.088 39.9299C178.264 40.7008 177.148 41.3388 175.739 41.8439C174.33 42.349 172.535 42.6016 170.356 42.6016H166.528V41.804H169.957C171.738 41.804 173.094 41.5116 174.024 40.9268C174.981 40.3153 175.619 39.5178 175.938 38.5342C176.284 37.524 176.457 36.4075 176.457 35.1847C176.457 33.0845 176.005 31.4629 175.101 30.3198C174.197 29.1501 172.629 28.5653 170.395 28.5653C169.252 28.5653 168.495 28.7912 168.123 29.2432C167.777 29.6951 167.604 30.6122 167.604 31.9946V51.773C167.604 52.73 167.684 53.4478 167.843 53.9263C168.003 54.4048 168.309 54.7238 168.761 54.8833C169.213 55.0428 169.877 55.1492 170.754 55.2023V55.9998C170.116 55.9467 169.306 55.9201 168.322 55.9201C167.365 55.8935 166.381 55.8802 165.371 55.8802C164.255 55.8802 163.205 55.8935 162.221 55.9201C161.264 55.9201 160.48 55.9467 159.868 55.9998V55.2023C160.772 55.1492 161.45 55.0428 161.902 54.8833C162.354 54.7238 162.646 54.4048 162.779 53.9263C162.939 53.4478 163.018 52.73 163.018 51.773V31.9946C163.018 31.011 162.939 30.2932 162.779 29.8413C162.646 29.3628 162.341 29.0438 161.862 28.8843C161.41 28.6982 160.746 28.5919 159.868 28.5653V27.7678ZM166.607 41.9237C167.963 41.9768 169.053 42.0433 169.877 42.1231C170.701 42.1762 171.392 42.2294 171.951 42.2826C172.509 42.3357 173.027 42.4022 173.506 42.4819C175.5 42.7478 176.948 43.2794 177.852 44.077C178.783 44.8745 179.421 46.0973 179.766 47.7455L180.763 51.8129C181.002 52.956 181.255 53.7668 181.521 54.2453C181.813 54.7238 182.239 54.9631 182.797 54.9631C183.222 54.9365 183.568 54.8169 183.834 54.6042C184.126 54.3649 184.432 54.0459 184.751 53.6472L185.309 54.0858C184.698 54.9099 184.06 55.5346 183.395 55.96C182.73 56.3587 181.84 56.5581 180.723 56.5581C179.58 56.5581 178.597 56.2657 177.773 55.6808C176.975 55.0694 176.403 53.9263 176.058 52.2515L175.26 48.2639C175.021 47.1208 174.755 46.1372 174.463 45.3131C174.17 44.4624 173.758 43.7978 173.227 43.3193C172.722 42.8408 171.977 42.6016 170.994 42.6016H166.687L166.607 41.9237Z" fill="white"/>
<path d="M199.907 27.2095C202.512 27.2095 204.798 27.781 206.766 28.9242C208.759 30.0673 210.301 31.7155 211.391 33.8688C212.481 35.9955 213.026 38.5874 213.026 41.6445C213.026 44.6219 212.468 47.2272 211.351 49.4602C210.235 51.6932 208.68 53.4345 206.686 54.6839C204.692 55.9334 202.419 56.5581 199.867 56.5581C197.235 56.5581 194.936 55.9865 192.969 54.8434C191.001 53.7003 189.473 52.0521 188.383 49.8988C187.293 47.7455 186.748 45.1536 186.748 42.1231C186.748 39.1457 187.306 36.5404 188.423 34.3074C189.566 32.0743 191.121 30.3331 193.088 29.0837C195.055 27.8342 197.328 27.2095 199.907 27.2095ZM199.748 27.9273C198.099 27.9273 196.664 28.5254 195.441 29.7217C194.218 30.9179 193.274 32.5661 192.61 34.6663C191.945 36.7664 191.613 39.1988 191.613 41.9635C191.613 44.7814 191.985 47.2404 192.729 49.3406C193.474 51.4141 194.484 53.0224 195.76 54.1655C197.036 55.2821 198.458 55.8403 200.027 55.8403C201.675 55.8403 203.097 55.2422 204.293 54.0459C205.516 52.8496 206.46 51.2014 207.125 49.1013C207.816 46.9746 208.161 44.5422 208.161 41.804C208.161 38.9596 207.776 36.5006 207.005 34.427C206.261 32.3535 205.25 30.7584 203.974 29.6419C202.725 28.4988 201.316 27.9273 199.748 27.9273Z" fill="white"/>
<path d="M237.628 27.7678C242.546 27.7678 246.201 28.964 248.594 31.3566C250.986 33.7225 252.182 37.1253 252.182 41.5648C252.182 44.4624 251.598 47.0012 250.428 49.1811C249.258 51.3344 247.557 53.0092 245.324 54.2054C243.117 55.4017 240.432 55.9998 237.269 55.9998C236.87 55.9998 236.325 55.9865 235.634 55.96C234.969 55.9334 234.278 55.9201 233.56 55.9201C232.843 55.8935 232.191 55.8802 231.606 55.8802C230.596 55.8802 229.599 55.8935 228.616 55.9201C227.659 55.9201 226.875 55.9467 226.263 55.9998V55.2023C227.167 55.1492 227.845 55.0428 228.297 54.8833C228.749 54.7238 229.041 54.4048 229.174 53.9263C229.334 53.4478 229.413 52.73 229.413 51.773V31.9946C229.413 31.011 229.334 30.2932 229.174 29.8413C229.041 29.3628 228.735 29.0438 228.257 28.8843C227.805 28.6982 227.14 28.5919 226.263 28.5653V27.7678C226.875 27.7943 227.659 27.8342 228.616 27.8874C229.599 27.914 230.57 27.914 231.527 27.8874C232.484 27.8608 233.547 27.8342 234.717 27.8076C235.913 27.781 236.883 27.7678 237.628 27.7678ZM236.95 28.4855C235.727 28.4855 234.929 28.7115 234.557 29.1634C234.185 29.6153 233.999 30.5325 233.999 31.9148V51.8528C233.999 53.2351 234.185 54.1523 234.557 54.6042C234.956 55.0561 235.767 55.2821 236.99 55.2821C239.675 55.2821 241.761 54.7637 243.25 53.7269C244.739 52.6636 245.789 51.1217 246.4 49.1013C247.012 47.0809 247.318 44.6219 247.318 41.7243C247.318 38.7469 246.985 36.2879 246.321 34.3473C245.656 32.3801 244.566 30.9179 243.051 29.9609C241.562 28.9773 239.528 28.4855 236.95 28.4855Z" fill="white"/>
<path d="M266.355 27.7678V28.5653C265.478 28.5919 264.813 28.6982 264.361 28.8843C263.909 29.0438 263.604 29.3628 263.444 29.8413C263.285 30.2932 263.205 31.011 263.205 31.9946V51.773C263.205 52.73 263.285 53.4478 263.444 53.9263C263.604 54.4048 263.909 54.7238 264.361 54.8833C264.813 55.0428 265.478 55.1492 266.355 55.2023V55.9998C265.717 55.9467 264.906 55.9201 263.923 55.9201C262.966 55.8935 261.982 55.8802 260.972 55.8802C259.855 55.8802 258.805 55.8935 257.822 55.9201C256.865 55.9201 256.08 55.9467 255.469 55.9998V55.2023C256.373 55.1492 257.051 55.0428 257.503 54.8833C257.955 54.7238 258.247 54.4048 258.38 53.9263C258.539 53.4478 258.619 52.73 258.619 51.773V31.9946C258.619 31.011 258.539 30.2932 258.38 29.8413C258.247 29.3628 257.941 29.0438 257.463 28.8843C257.011 28.6982 256.346 28.5919 255.469 28.5653V27.7678C256.08 27.7943 256.865 27.8209 257.822 27.8475C258.805 27.8741 259.855 27.8874 260.972 27.8874C261.982 27.8874 262.966 27.8741 263.923 27.8475C264.906 27.8209 265.717 27.7943 266.355 27.7678Z" fill="white"/>
<path d="M281.372 27.6083L291.101 52.6503C291.474 53.6339 291.899 54.2985 292.378 54.6441C292.883 54.9896 293.348 55.1757 293.773 55.2023V55.9998C293.135 55.9467 292.378 55.9201 291.5 55.9201C290.65 55.8935 289.786 55.8802 288.908 55.8802C287.792 55.8802 286.755 55.8935 285.798 55.9201C284.841 55.9201 284.07 55.9467 283.485 55.9998V55.2023C284.841 55.1492 285.692 54.9232 286.037 54.5244C286.409 54.0991 286.33 53.2085 285.798 51.8528L278.62 32.4731L279.258 31.7553L272.639 49.0614C272.16 50.2577 271.868 51.2546 271.762 52.0521C271.682 52.8496 271.748 53.4744 271.961 53.9263C272.2 54.3782 272.599 54.6972 273.157 54.8833C273.716 55.0694 274.407 55.1757 275.231 55.2023V55.9998C274.433 55.9467 273.623 55.9201 272.798 55.9201C272.001 55.8935 271.243 55.8802 270.526 55.8802C269.888 55.8802 269.316 55.8935 268.811 55.9201C268.332 55.9201 267.894 55.9467 267.495 55.9998V55.2023C268.053 55.0694 268.612 54.7371 269.17 54.2054C269.728 53.6737 270.26 52.7699 270.765 51.4939L280.016 27.6083C280.229 27.6083 280.455 27.6083 280.694 27.6083C280.933 27.6083 281.159 27.6083 281.372 27.6083ZM285.559 44.5156V45.3131H273.676L274.074 44.5156H285.559Z" fill="white"/>
<path d="M1 42.4701L11.8234 19.52H305.48L318.013 42.1423L305.48 65.0924H11.8234L1 42.4701Z" stroke="url(#paint0_linear_2829_978)" stroke-width="1.13931"/>
<defs>
<linearGradient id="paint0_linear_2829_978" x1="108.999" y1="19.5612" x2="158.801" y2="19.569" gradientUnits="userSpaceOnUse">
<stop stop-color="#F6F814"/>
<stop offset="1" stop-color="#60D466"/>
</linearGradient>
</defs>
</svg>
