<svg width="121" height="22" viewBox="0 0 121 22" fill="none" xmlns="http://www.w3.org/2000/svg">
<g clip-path="url(#clip0_10146_17878)">
<path d="M75.7221 11.916C75.7395 11.9043 75.7593 11.8966 75.78 11.8934C75.8773 11.8554 75.9681 11.8214 76.0469 11.7883C76.0958 11.763 76.1466 11.7416 76.1989 11.7244C77.6935 11.0156 78.9461 9.45395 78.9461 7.80989C78.9461 4.35931 76.3806 3.27539 73.3792 3.27539H67.7142C67.7705 3.38693 68.0575 4.61149 68.0575 4.65837V19.8582H70.6802C70.7405 19.8588 70.8003 19.8472 70.8561 19.8243C70.9119 19.8013 70.9626 19.7674 71.0052 19.7245C71.0478 19.6816 71.0814 19.6305 71.1042 19.5744C71.1269 19.5183 71.1383 19.4581 71.1377 19.3975V12.4689H72.3911C74.2355 12.4689 75.3788 12.0405 75.6586 11.9419C75.6674 11.9249 75.6964 11.9184 75.7189 11.916H75.7221ZM72.5905 10.2622H71.1433V5.54587H73.0962C74.4871 5.54587 75.6739 6.29435 75.6739 7.7816C75.6739 9.70694 74.3432 10.2598 72.5929 10.2598" fill="white"/>
<path d="M59.9888 3.27441H54.7628C54.8183 3.38515 55.1029 4.61052 55.1029 4.6574V19.8573H57.7288C57.8522 19.8588 57.9712 19.8112 58.0599 19.7249C58.1486 19.6386 58.1998 19.5206 58.2023 19.3965V13.1953H60.0427C63.0915 13.1953 65.9923 11.7 65.9923 8.23812C65.9923 4.49816 63.2531 3.27441 59.9864 3.27441H59.9888ZM60.1054 10.9992H58.2112V5.51822H60.1175C61.8445 5.51822 62.7023 6.58517 62.7023 8.23812C62.7023 9.84742 61.7818 10.9992 60.1078 10.9992" fill="white"/>
<path d="M73.1615 13.7264L76.9645 19.8557H80.478L76.2022 13.252C75.2188 13.5658 74.1933 13.7266 73.1615 13.7288" fill="white"/>
<path d="M81.3722 4.65837V19.8542H84.0254C84.1485 19.8564 84.2675 19.8093 84.3561 19.7234C84.4448 19.6375 84.4959 19.5197 84.4982 19.3959V3.27539H81.0731C81.0836 3.38613 81.373 4.61068 81.373 4.65837" fill="white"/>
<path d="M96.2237 12.8795C95.9118 13.7686 95.8475 14.5882 95.6207 15.542C95.4366 14.6003 95.308 13.7015 94.9631 12.7873L91.4624 3.27539H87.1281C87.1353 3.38613 87.4408 4.61068 87.4408 4.65837V19.8445H89.4766C89.5947 19.834 89.7047 19.7796 89.785 19.6918C89.8654 19.604 89.9102 19.4893 89.9107 19.37V8.60363C89.9107 8.05157 89.8006 7.49142 89.7901 6.97089C89.9742 7.51082 90.1342 8.05157 90.3272 8.60363L94.4782 19.8582H96.1514L100.181 8.60363C100.375 8.05157 100.534 7.51082 100.721 6.97089C100.652 7.51254 100.612 8.05759 100.602 8.60363V19.8445H103.223C103.341 19.8346 103.452 19.7804 103.533 19.6926C103.614 19.6048 103.659 19.4897 103.66 19.37V3.27539H99.6801L96.2237 12.8795Z" fill="white"/>
<path d="M113.071 3.03108C108.029 3.03108 105.249 6.69748 105.249 11.5416C105.249 16.3476 108.001 20.1094 113.048 20.1094C118.051 20.1094 121.001 16.4721 121.001 11.5981C121.001 6.62959 118.208 3.03027 113.072 3.03027L113.071 3.03108ZM113.141 17.9642C109.597 17.9642 108.569 14.4263 108.569 11.4535C108.569 8.52906 109.622 5.17062 113.101 5.17062C116.656 5.17062 117.67 8.73436 117.67 11.6741C117.67 14.6139 116.617 17.9642 113.141 17.9642Z" fill="white"/>
<path d="M1.2202 11.406C1.2202 12.633 2.05797 13.6821 3.51161 13.6821C3.98833 13.6877 4.45864 13.5715 4.87841 13.3443V12.2022H3.13855V11.2468H5.9807V13.8131C5.30136 14.4361 4.4126 14.7774 3.49312 14.7685C1.4807 14.7685 -0.00268555 13.2529 -0.00268555 11.3939C-0.00268555 9.5348 1.45015 8.00391 3.47221 8.00391C4.42255 8.00391 5.14856 8.26579 5.83839 8.79037L5.30373 9.69161C4.66053 9.2608 4.1114 9.08297 3.50518 9.08297C2.03948 9.08297 1.2202 10.2162 1.2202 11.406Z" fill="white"/>
<path d="M12.5401 12.1919C12.6519 12.8943 13.0056 13.7276 13.6954 13.7276C13.9622 13.7247 14.2182 13.6212 14.4126 13.4374L14.8315 14.2619C14.4802 14.5969 14.0115 14.7787 13.5274 14.7679C11.9902 14.7679 11.5174 13.0066 11.4499 12.2573H10.3492V14.6644H9.15686V8.1084H11.9709C13.2653 8.1084 14.0018 9.09209 14.0018 10.2156C14.001 11.171 13.451 11.9591 12.5401 12.1919ZM11.7851 11.3028C12.4002 11.3028 12.7918 10.8525 12.7918 10.2067C12.7918 9.56089 12.3897 9.10098 11.7851 9.10098H10.3492V11.3028H11.7851Z" fill="white"/>
<path d="M22.6911 8.1084V12.2113C22.6911 13.8869 21.4803 14.7679 20.0548 14.7679C18.6293 14.7679 17.4185 13.8869 17.4185 12.2113V8.1084H18.6108V12.2113C18.6108 13.2313 19.2725 13.7373 20.058 13.7373C20.8435 13.7373 21.5052 13.2313 21.5052 12.2113V8.1084H22.6911Z" fill="white"/>
<path d="M26.1465 14.6644V8.1084H28.8857C30.1898 8.1084 30.9255 9.07835 30.9255 10.2156C30.9255 11.3529 30.1802 12.267 28.8857 12.267H27.3388V14.6644H26.1465ZM28.7 11.3205C29.3239 11.3205 29.7066 10.8622 29.7066 10.2067C29.7066 9.5318 29.3239 9.07511 28.7 9.07511H27.3388V11.3222L28.7 11.3205Z" fill="white"/>
<path d="M36.8781 8.00684C38.7418 8.00684 40.2887 9.52399 40.2887 11.3879C40.2887 13.2518 38.7418 14.769 36.8781 14.769C35.0144 14.769 33.4691 13.2518 33.4691 11.3879C33.4691 9.52399 35.0152 8.00684 36.8781 8.00684ZM36.8781 13.6826C38.0801 13.6826 39.0771 12.7127 39.0771 11.3879C39.0771 10.0631 38.0801 9.09318 36.8781 9.09318C35.6761 9.09318 34.6799 10.0672 34.6799 11.3879C34.6799 12.7086 35.6769 13.6826 36.8781 13.6826Z" fill="white"/>
<path d="M48.289 0H47.6908V22H48.289V0Z" fill="white"/>
</g>
<defs>
<clipPath id="clip0_10146_17878">
<rect width="121" height="22" fill="white"/>
</clipPath>
</defs>
</svg>
