<svg width="302" height="132" viewBox="0 0 302 132" fill="none" xmlns="http://www.w3.org/2000/svg">
<path d="M87.2726 59.2362L73.9441 30.4122H71.8998L58.5713 59.2362H60.7791L64.4178 51.2227H81.3034L84.9422 59.2362H87.2726ZM80.4039 49.3011H65.3173L72.881 32.7427L80.4039 49.3011ZM109.448 51.836V51.7542C109.448 49.6555 108.712 47.9928 107.241 46.7662C105.769 45.5124 103.37 44.5448 100.045 43.8634C98.3548 43.5091 96.9647 43.1275 95.8744 42.7186C94.7842 42.3098 93.9256 41.86 93.2987 41.3694C92.699 40.8515 92.2766 40.2928 92.0312 39.6931C91.8132 39.0662 91.7042 38.3712 91.7042 37.608V37.5262C91.7042 36.7903 91.8677 36.0952 92.1948 35.4411C92.5219 34.7869 92.9852 34.2145 93.5849 33.7239C94.2118 33.2333 94.9477 32.8517 95.7927 32.5791C96.6649 32.2793 97.6325 32.1294 98.6955 32.1294C100.276 32.1294 101.748 32.3747 103.111 32.8653C104.501 33.3559 105.878 34.1873 107.241 35.3593L108.59 33.683C107.145 32.511 105.66 31.6388 104.133 31.0664C102.634 30.494 100.849 30.2078 98.7773 30.2078C97.4417 30.2078 96.2152 30.3986 95.0976 30.7802C93.9801 31.1618 93.0125 31.6933 92.1948 32.3747C91.3771 33.0561 90.7366 33.8602 90.2732 34.7869C89.8098 35.6864 89.5781 36.6676 89.5781 37.7306V37.8124C89.5781 38.9027 89.7553 39.8703 90.1096 40.7153C90.464 41.5602 91.0227 42.3098 91.7859 42.9639C92.5764 43.5908 93.5849 44.1496 94.8114 44.6402C96.038 45.1036 97.5098 45.5124 99.227 45.8668C100.862 46.1939 102.198 46.5618 103.234 46.9707C104.27 47.3523 105.087 47.7884 105.687 48.279C106.314 48.7696 106.736 49.3148 106.954 49.9144C107.2 50.5141 107.322 51.1955 107.322 51.9587V52.0404C107.322 52.8581 107.145 53.6213 106.791 54.33C106.436 55.0114 105.946 55.6111 105.319 56.1289C104.692 56.6196 103.929 57.0148 103.029 57.3146C102.13 57.5872 101.149 57.7235 100.086 57.7235C99.0226 57.7235 98.0414 57.6417 97.1419 57.4781C96.2424 57.2873 95.3838 57.0284 94.5661 56.7013C93.7484 56.347 92.9443 55.9109 92.1539 55.393C91.3907 54.8479 90.6139 54.2073 89.8234 53.4714L88.4334 55.0659C90.1505 56.5923 91.9222 57.7371 93.7484 58.5003C95.6019 59.2635 97.6734 59.6451 99.963 59.6451C101.353 59.6451 102.62 59.4543 103.765 59.0727C104.937 58.6911 105.932 58.1596 106.75 57.4781C107.595 56.7967 108.249 55.979 108.712 55.025C109.203 54.0438 109.448 52.9808 109.448 51.836ZM136.541 59.2362V30.6166H134.415V43.8634H116.098V30.6166H113.972V59.2362H116.098V45.8259H134.415V59.2362H136.541ZM144.994 59.2362V30.6166H142.868V59.2362H144.994ZM175.144 59.2362V30.6166H173.099V55.5157L153.352 30.6166H151.349V59.2362H153.393V33.8057L173.549 59.2362H175.144ZM205.564 55.4339V44.3949H193.952V46.3574H203.519V54.5753C203.002 55.0114 202.402 55.4339 201.721 55.8427C201.039 56.2243 200.303 56.565 199.513 56.8649C198.75 57.1647 197.932 57.41 197.06 57.6008C196.187 57.7643 195.302 57.8461 194.402 57.8461C192.494 57.8461 190.777 57.519 189.251 56.8649C187.751 56.2107 186.47 55.3112 185.407 54.1665C184.344 53.0217 183.527 51.6588 182.954 50.0779C182.409 48.4971 182.137 46.7799 182.137 44.9264V44.8446C182.137 43.1275 182.423 41.4921 182.995 39.9384C183.568 38.3848 184.372 37.022 185.407 35.8499C186.47 34.6779 187.724 33.7512 189.169 33.0697C190.613 32.3883 192.208 32.0476 193.952 32.0476C196.106 32.0476 197.891 32.3747 199.308 33.0289C200.753 33.683 202.034 34.5007 203.152 35.482L204.542 33.8874C203.833 33.2878 203.097 32.7563 202.334 32.2929C201.598 31.8296 200.807 31.4343 199.962 31.1073C199.145 30.7802 198.245 30.5349 197.264 30.3713C196.31 30.2078 195.247 30.126 194.075 30.126C191.949 30.126 190.014 30.5349 188.269 31.3526C186.525 32.1703 185.026 33.2605 183.772 34.6234C182.545 35.9862 181.591 37.5671 180.91 39.366C180.256 41.1377 179.929 42.9912 179.929 44.9264V45.0082C179.929 47.0252 180.256 48.9332 180.91 50.7321C181.564 52.5038 182.505 54.0574 183.731 55.393C184.958 56.7286 186.457 57.7916 188.228 58.582C190.027 59.3452 192.058 59.7268 194.32 59.7268C196.664 59.7268 198.79 59.3043 200.698 58.4594C202.634 57.5872 204.255 56.5787 205.564 55.4339ZM230.04 32.5791V30.6166H207.962V32.5791H217.938V59.2362H220.064V32.5791H230.04ZM259.344 44.9264C259.371 44.8992 259.371 44.8719 259.344 44.8446C259.344 42.8822 259.003 41.0151 258.322 39.2434C257.64 37.4717 256.673 35.9181 255.419 34.5825C254.165 33.2197 252.652 32.143 250.881 31.3526C249.109 30.5349 247.147 30.126 244.993 30.126C242.813 30.126 240.837 30.5349 239.065 31.3526C237.293 32.143 235.78 33.2197 234.527 34.5825C233.273 35.9453 232.292 37.5262 231.583 39.3252C230.902 41.0968 230.561 42.9639 230.561 44.9264V45.0082C230.561 46.9707 230.902 48.8378 231.583 50.6094C232.264 52.3811 233.232 53.9484 234.486 55.3112C235.74 56.6468 237.239 57.7235 238.983 58.5412C240.755 59.3316 242.731 59.7268 244.911 59.7268C247.065 59.7268 249.027 59.3316 250.799 58.5412C252.598 57.7235 254.124 56.6332 255.378 55.2704C256.632 53.9075 257.599 52.3403 258.281 50.5686C258.99 48.7696 259.344 46.8889 259.344 44.9264ZM257.136 45.0082C257.136 46.7799 256.836 48.4425 256.237 49.9962C255.637 51.5498 254.792 52.9126 253.702 54.0847C252.639 55.2295 251.358 56.1426 249.859 56.824C248.387 57.4781 246.765 57.8052 244.993 57.8052C243.222 57.8052 241.586 57.4645 240.087 56.7831C238.588 56.1017 237.293 55.1886 236.203 54.0438C235.14 52.8718 234.295 51.5089 233.668 49.9553C233.068 48.3744 232.769 46.6981 232.769 44.9264V44.8446C232.769 43.073 233.068 41.4103 233.668 39.8567C234.268 38.303 235.099 36.9538 236.162 35.809C237.252 34.637 238.533 33.7239 240.005 33.0697C241.504 32.3883 243.14 32.0476 244.911 32.0476C246.683 32.0476 248.319 32.3883 249.818 33.0697C251.317 33.7512 252.598 34.6779 253.661 35.8499C254.751 36.9947 255.596 38.3575 256.196 39.9384C256.823 41.4921 257.136 43.1547 257.136 44.9264V45.0082ZM287.907 59.2362V30.6166H285.862V55.5157L266.115 30.6166H264.112V59.2362H266.156V33.8057L286.312 59.2362H287.907Z" fill="white"/>
<path d="M46.6121 30.6166H40.0296L34.1013 49.9962L27.6823 30.5349H22.2855L15.8665 49.9962L9.93818 30.6166H3.19214L12.9637 59.4406H18.4423L24.9021 40.7153L31.362 59.4406H36.8406L46.6121 30.6166Z" fill="white"/>
<path d="M55.2114 31.0974L41.2028 60.3794H45.282L59.2906 31.0974H55.2114Z" fill="#FEDF00"/>
<path d="M59.0147 31.0974L45.0061 60.3794H49.0853L63.0939 31.0974H59.0147Z" fill="#217500"/>
<path d="M44.3483 91.8977V91.7868C44.3483 89.0146 43.8308 86.4271 42.7958 84.0245C41.7978 81.5849 40.3747 79.478 38.5266 77.7037C36.7153 75.8925 34.553 74.4694 32.0395 73.4344C29.5259 72.3625 26.7721 71.8265 23.7781 71.8265C20.784 71.8265 18.0118 72.3625 15.4613 73.4344C12.9478 74.4694 10.7669 75.911 8.91875 77.7592C7.10753 79.5704 5.68444 81.6958 4.64946 84.1354C3.61448 86.538 3.09699 89.1255 3.09699 91.8977V92.0086C3.09699 94.7809 3.596 97.3868 4.59401 99.8264C5.62899 102.229 7.05209 104.336 8.8633 106.147C10.7115 107.921 12.8923 109.345 15.4059 110.416C17.9194 111.451 20.6732 111.969 23.6672 111.969C26.6613 111.969 29.415 111.451 31.9286 110.416C34.479 109.345 36.6599 107.903 38.4711 106.092C40.3193 104.244 41.7609 102.118 42.7958 99.7155C43.8308 97.2759 44.3483 94.67 44.3483 91.8977ZM35.4216 92.0086C35.4216 93.672 35.1259 95.2429 34.5345 96.7215C33.98 98.163 33.1853 99.4383 32.1503 100.547C31.1523 101.656 29.9325 102.525 28.491 103.153C27.0494 103.782 25.4784 104.096 23.7781 104.096C22.0408 104.096 20.4514 103.782 19.0098 103.153C17.6052 102.488 16.3669 101.601 15.295 100.492C14.26 99.3828 13.4468 98.0891 12.8554 96.6106C12.3009 95.132 12.0237 93.5611 12.0237 91.8977V91.7868C12.0237 90.1235 12.3009 88.571 12.8554 87.1294C13.4468 85.6509 14.2415 84.3572 15.2395 83.2483C16.2745 82.1393 17.4943 81.2707 18.8989 80.6423C20.3405 80.0139 21.9299 79.6997 23.6672 79.6997C25.3675 79.6997 26.9385 80.0324 28.3801 80.6978C29.8216 81.3261 31.0599 82.1948 32.0949 83.3037C33.1668 84.4126 33.98 85.7063 34.5345 87.1849C35.1259 88.6634 35.4216 90.2344 35.4216 91.8977V92.0086ZM80.3661 111.304V103.541H61.0157V72.4919H52.4771V111.304H80.3661ZM96.2867 111.304V72.4919H87.7481V111.304H96.2867ZM142.137 72.4919H132.933L122.786 99.8264L112.64 72.4919H103.214L118.905 111.581H126.446L142.137 72.4919ZM178.231 111.304V103.708H157.162V95.5571H175.459V87.9611H157.162V80.0879H177.954V72.4919H148.679V111.304H178.231ZM215.764 80.3651V72.4919H183.605V80.3651H195.415V111.304H203.954V80.3651H215.764ZM252.271 80.3651V72.4919H220.113V80.3651H231.922V111.304H240.461V80.3651H252.271ZM298.925 91.8977V91.7868C298.925 89.0146 298.407 86.4271 297.372 84.0245C296.374 81.5849 294.951 79.478 293.103 77.7037C291.292 75.8925 289.129 74.4694 286.616 73.4344C284.102 72.3625 281.349 71.8265 278.354 71.8265C275.36 71.8265 272.588 72.3625 270.038 73.4344C267.524 74.4694 265.343 75.911 263.495 77.7592C261.684 79.5704 260.261 81.6958 259.226 84.1354C258.191 86.538 257.673 89.1255 257.673 91.8977V92.0086C257.673 94.7809 258.172 97.3868 259.17 99.8264C260.205 102.229 261.628 104.336 263.44 106.147C265.288 107.921 267.469 109.345 269.982 110.416C272.496 111.451 275.25 111.969 278.244 111.969C281.238 111.969 283.991 111.451 286.505 110.416C289.055 109.345 291.236 107.903 293.047 106.092C294.896 104.244 296.337 102.118 297.372 99.7155C298.407 97.2759 298.925 94.67 298.925 91.8977ZM289.998 92.0086C289.998 93.672 289.702 95.2429 289.111 96.7215C288.556 98.163 287.762 99.4383 286.727 100.547C285.729 101.656 284.509 102.525 283.067 103.153C281.626 103.782 280.055 104.096 278.354 104.096C276.617 104.096 275.028 103.782 273.586 103.153C272.182 102.488 270.943 101.601 269.871 100.492C268.836 99.3828 268.023 98.0891 267.432 96.6106C266.877 95.132 266.6 93.5611 266.6 91.8977V91.7868C266.6 90.1235 266.877 88.571 267.432 87.1294C268.023 85.6509 268.818 84.3572 269.816 83.2483C270.851 82.1393 272.071 81.2707 273.475 80.6423C274.917 80.0139 276.506 79.6997 278.244 79.6997C279.944 79.6997 281.515 80.0324 282.956 80.6978C284.398 81.3261 285.636 82.1948 286.671 83.3037C287.743 84.4126 288.556 85.7063 289.111 87.1849C289.702 88.6634 289.998 90.2344 289.998 91.8977V92.0086Z" fill="white"/>
<path d="M6.9936 17.1304C6.22201 17.1304 5.5428 16.9728 4.95596 16.6577C4.36912 16.3425 3.91269 15.9024 3.58667 15.3373C3.27152 14.7613 3.11394 14.0984 3.11394 13.3486V9.24069C3.11394 8.49084 3.27152 7.83336 3.58667 7.26826C3.91269 6.69228 4.36912 6.24672 4.95596 5.93157C5.5428 5.61641 6.22201 5.45884 6.9936 5.45884C7.76518 5.45884 8.44439 5.61641 9.03123 5.93157C9.62894 6.24672 10.0854 6.69228 10.4005 7.26826C10.7265 7.83336 10.8896 8.49084 10.8896 9.24069V13.3486C10.8896 14.0984 10.7265 14.7613 10.4005 15.3373C10.0854 15.9024 9.62894 16.3425 9.03123 16.6577C8.44439 16.9728 7.76518 17.1304 6.9936 17.1304ZM6.9936 16.136C7.81952 16.136 8.48243 15.8861 8.98233 15.3862C9.48223 14.8863 9.73218 14.2234 9.73218 13.3975V9.22438C9.73218 8.39846 9.48223 7.73555 8.98233 7.23565C8.48243 6.72489 7.81952 6.4695 6.9936 6.4695C6.17854 6.4695 5.52107 6.72489 5.02117 7.23565C4.52127 7.73555 4.27132 8.39846 4.27132 9.22438V13.3975C4.27132 14.2234 4.52127 14.8863 5.02117 15.3862C5.52107 15.8861 6.17854 16.136 6.9936 16.136ZM24.3097 5.57294C25.266 5.57294 26.0322 5.86636 26.6081 6.4532C27.195 7.04004 27.4884 7.81162 27.4884 8.76796C27.4884 9.71342 27.1895 10.4741 26.5918 11.0501C26.005 11.6261 25.228 11.9141 24.2608 11.9141H21.0821C21.0386 11.9141 21.0169 11.9358 21.0169 11.9793V16.837C21.0169 16.9457 20.9625 17 20.8538 17H20.0225C19.9138 17 19.8595 16.9457 19.8595 16.837V5.73595C19.8595 5.62728 19.9138 5.57294 20.0225 5.57294H24.3097ZM24.1793 10.9523C24.8204 10.9523 25.3421 10.7567 25.7442 10.3655C26.1463 9.96337 26.3473 9.4363 26.3473 8.78426C26.3473 8.12135 26.1463 7.58884 25.7442 7.18675C25.3421 6.78466 24.8204 6.58361 24.1793 6.58361H21.0821C21.0386 6.58361 21.0169 6.60534 21.0169 6.64881V10.8871C21.0169 10.9306 21.0386 10.9523 21.0821 10.9523H24.1793ZM37.82 17C37.7221 17 37.6569 16.962 37.6243 16.8859L35.2281 11.8326C35.2172 11.8 35.1955 11.7837 35.1629 11.7837H32.3917C32.3482 11.7837 32.3265 11.8054 32.3265 11.8489V16.837C32.3265 16.9457 32.2722 17 32.1635 17H31.3321C31.2235 17 31.1691 16.9457 31.1691 16.837V5.75225C31.1691 5.64358 31.2235 5.58924 31.3321 5.58924H35.5541C36.4887 5.58924 37.244 5.88266 37.82 6.4695C38.3959 7.04547 38.6839 7.80076 38.6839 8.73535C38.6839 9.49607 38.4774 10.1427 38.0645 10.6752C37.6515 11.2077 37.0918 11.55 36.3855 11.7021C36.342 11.7239 36.3311 11.7511 36.3529 11.7837L38.798 16.8044C38.8089 16.8261 38.8143 16.8533 38.8143 16.8859C38.8143 16.962 38.7709 17 38.6839 17H37.82ZM32.3917 6.59991C32.3482 6.59991 32.3265 6.62165 32.3265 6.66512V10.7893C32.3265 10.8328 32.3482 10.8545 32.3917 10.8545H35.4237C36.054 10.8545 36.5648 10.6589 36.956 10.2677C37.3472 9.87643 37.5428 9.36566 37.5428 8.73535C37.5428 8.10504 37.3472 7.59428 36.956 7.20305C36.5648 6.80096 36.054 6.59991 35.4237 6.59991H32.3917ZM46.22 17.1304C45.4484 17.1304 44.7692 16.9728 44.1823 16.6577C43.5955 16.3425 43.1391 15.9024 42.8131 15.3373C42.4979 14.7613 42.3403 14.0984 42.3403 13.3486V9.24069C42.3403 8.49084 42.4979 7.83336 42.8131 7.26826C43.1391 6.69228 43.5955 6.24672 44.1823 5.93157C44.7692 5.61641 45.4484 5.45884 46.22 5.45884C46.9916 5.45884 47.6708 5.61641 48.2576 5.93157C48.8553 6.24672 49.3117 6.69228 49.6269 7.26826C49.9529 7.83336 50.1159 8.49084 50.1159 9.24069V13.3486C50.1159 14.0984 49.9529 14.7613 49.6269 15.3373C49.3117 15.9024 48.8553 16.3425 48.2576 16.6577C47.6708 16.9728 46.9916 17.1304 46.22 17.1304ZM46.22 16.136C47.0459 16.136 47.7088 15.8861 48.2087 15.3862C48.7086 14.8863 48.9586 14.2234 48.9586 13.3975V9.22438C48.9586 8.39846 48.7086 7.73555 48.2087 7.23565C47.7088 6.72489 47.0459 6.4695 46.22 6.4695C45.4049 6.4695 44.7474 6.72489 44.2475 7.23565C43.7476 7.73555 43.4977 8.39846 43.4977 9.22438V13.3975C43.4977 14.2234 43.7476 14.8863 44.2475 15.3862C44.7474 15.8861 45.4049 16.136 46.22 16.136ZM57.8601 17.1467C57.0994 17.1467 56.431 17 55.8551 16.7066C55.2791 16.4023 54.8281 15.9785 54.5021 15.4351C54.1869 14.8809 54.0293 14.2451 54.0293 13.5279V9.04507C54.0293 8.33869 54.1869 7.71382 54.5021 7.17045C54.8281 6.62708 55.2791 6.20869 55.8551 5.91527C56.431 5.61098 57.0994 5.45884 57.8601 5.45884C58.6208 5.45884 59.2892 5.60555 59.8651 5.89896C60.4411 6.19238 60.8867 6.60534 61.2018 7.13785C61.5278 7.67035 61.6908 8.28436 61.6908 8.97987C61.6908 9.03421 61.6745 9.07768 61.6419 9.11028C61.6093 9.14288 61.5713 9.15918 61.5278 9.15918L60.6965 9.20808C60.5878 9.20808 60.5335 9.15918 60.5335 9.06137V9.01247C60.5335 8.24089 60.289 7.62688 59.7999 7.17045C59.3109 6.70315 58.6643 6.4695 57.8601 6.4695C57.0559 6.4695 56.4093 6.70315 55.9203 7.17045C55.4312 7.63775 55.1867 8.25175 55.1867 9.01247V13.5768C55.1867 14.3375 55.4312 14.9515 55.9203 15.4188C56.4093 15.8861 57.0559 16.1197 57.8601 16.1197C58.6643 16.1197 59.3109 15.8915 59.7999 15.4351C60.289 14.9678 60.5335 14.3484 60.5335 13.5768V13.5442C60.5335 13.4464 60.5878 13.3975 60.6965 13.3975L61.5278 13.4464C61.6365 13.4464 61.6908 13.4953 61.6908 13.5931C61.6908 14.2995 61.5278 14.9243 61.2018 15.4677C60.8867 16.0002 60.4411 16.4132 59.8651 16.7066C59.2892 17 58.6208 17.1467 57.8601 17.1467ZM73.2226 6.4369C73.2226 6.54557 73.1683 6.59991 73.0596 6.59991H67.0608C67.0173 6.59991 66.9956 6.62165 66.9956 6.66512V10.6915C66.9956 10.735 67.0173 10.7567 67.0608 10.7567H71.2665C71.3751 10.7567 71.4295 10.811 71.4295 10.9197V11.6043C71.4295 11.713 71.3751 11.7674 71.2665 11.7674H67.0608C67.0173 11.7674 66.9956 11.7891 66.9956 11.8326V15.9241C66.9956 15.9676 67.0173 15.9893 67.0608 15.9893H73.0596C73.1683 15.9893 73.2226 16.0437 73.2226 16.1523V16.837C73.2226 16.9457 73.1683 17 73.0596 17H66.0012C65.8925 17 65.8382 16.9457 65.8382 16.837V5.75225C65.8382 5.64358 65.8925 5.58924 66.0012 5.58924H73.0596C73.1683 5.58924 73.2226 5.64358 73.2226 5.75225V6.4369ZM80.5494 17.1304C79.3214 17.1304 78.3488 16.8533 77.6315 16.2991C76.9251 15.7448 76.572 15.0058 76.572 14.0821V13.5768C76.572 13.4681 76.6263 13.4138 76.735 13.4138H77.5337C77.6424 13.4138 77.6967 13.4681 77.6967 13.5768V14.0169C77.6967 14.6472 77.9575 15.158 78.4792 15.5492C79.0008 15.9296 79.7235 16.1197 80.6472 16.1197C81.484 16.1197 82.1198 15.9459 82.5544 15.5981C82.9891 15.2395 83.2065 14.7668 83.2065 14.1799C83.2065 13.7996 83.1033 13.4735 82.8968 13.2018C82.7012 12.9302 82.3914 12.6748 81.9676 12.4357C81.5546 12.1966 80.9678 11.9195 80.2071 11.6043C79.392 11.2783 78.7563 10.9958 78.2999 10.7567C77.8543 10.5067 77.4902 10.1916 77.2077 9.81122C76.936 9.42 76.8002 8.93097 76.8002 8.34413C76.8002 7.43127 77.1153 6.72489 77.7456 6.22499C78.3868 5.71422 79.2616 5.45884 80.3701 5.45884C81.5764 5.45884 82.5273 5.74139 83.2228 6.30649C83.9183 6.8716 84.2661 7.62145 84.2661 8.55604V8.91466C84.2661 9.02334 84.2117 9.07768 84.1031 9.07768H83.288C83.1793 9.07768 83.125 9.02334 83.125 8.91466V8.62125C83.125 7.99094 82.875 7.47474 82.3751 7.07264C81.8861 6.67055 81.2015 6.4695 80.3212 6.4695C79.5496 6.4695 78.9573 6.62708 78.5444 6.94223C78.1314 7.25739 77.9249 7.71382 77.9249 8.31152C77.9249 8.70275 78.0227 9.02877 78.2184 9.28959C78.4248 9.53954 78.7128 9.76232 79.0823 9.95793C79.4627 10.1427 80.0441 10.3872 80.8265 10.6915C81.6199 11.0175 82.2556 11.3218 82.7338 11.6043C83.2228 11.8869 83.614 12.2347 83.9074 12.6476C84.2117 13.0497 84.3639 13.5442 84.3639 14.131C84.3639 15.0439 84.027 15.772 83.3532 16.3154C82.6794 16.8587 81.7448 17.1304 80.5494 17.1304ZM91.6176 17.1304C90.3896 17.1304 89.4169 16.8533 88.6997 16.2991C87.9933 15.7448 87.6401 15.0058 87.6401 14.0821V13.5768C87.6401 13.4681 87.6945 13.4138 87.8031 13.4138H88.6019C88.7106 13.4138 88.7649 13.4681 88.7649 13.5768V14.0169C88.7649 14.6472 89.0257 15.158 89.5474 15.5492C90.069 15.9296 90.7917 16.1197 91.7154 16.1197C92.5522 16.1197 93.1879 15.9459 93.6226 15.5981C94.0573 15.2395 94.2747 14.7668 94.2747 14.1799C94.2747 13.7996 94.1714 13.4735 93.9649 13.2018C93.7693 12.9302 93.4596 12.6748 93.0358 12.4357C92.6228 12.1966 92.036 11.9195 91.2753 11.6043C90.4602 11.2783 89.8245 10.9958 89.368 10.7567C88.9225 10.5067 88.5584 10.1916 88.2759 9.81122C88.0042 9.42 87.8683 8.93097 87.8683 8.34413C87.8683 7.43127 88.1835 6.72489 88.8138 6.22499C89.455 5.71422 90.3298 5.45884 91.4383 5.45884C92.6446 5.45884 93.5955 5.74139 94.291 6.30649C94.9865 6.8716 95.3342 7.62145 95.3342 8.55604V8.91466C95.3342 9.02334 95.2799 9.07768 95.1712 9.07768H94.3562C94.2475 9.07768 94.1932 9.02334 94.1932 8.91466V8.62125C94.1932 7.99094 93.9432 7.47474 93.4433 7.07264C92.9543 6.67055 92.2696 6.4695 91.3894 6.4695C90.6178 6.4695 90.0255 6.62708 89.6126 6.94223C89.1996 7.25739 88.9931 7.71382 88.9931 8.31152C88.9931 8.70275 89.0909 9.02877 89.2865 9.28959C89.493 9.53954 89.781 9.76232 90.1505 9.95793C90.5309 10.1427 91.1123 10.3872 91.8947 10.6915C92.688 11.0175 93.3238 11.3218 93.8019 11.6043C94.291 11.8869 94.6822 12.2347 94.9756 12.6476C95.2799 13.0497 95.432 13.5442 95.432 14.131C95.432 15.0439 95.0952 15.772 94.4214 16.3154C93.7476 16.8587 92.813 17.1304 91.6176 17.1304ZM102.914 17.1304C102.142 17.1304 101.463 16.9728 100.876 16.6577C100.29 16.3425 99.8331 15.9024 99.5071 15.3373C99.1919 14.7613 99.0343 14.0984 99.0343 13.3486V9.24069C99.0343 8.49084 99.1919 7.83336 99.5071 7.26826C99.8331 6.69228 100.29 6.24672 100.876 5.93157C101.463 5.61641 102.142 5.45884 102.914 5.45884C103.686 5.45884 104.365 5.61641 104.952 5.93157C105.549 6.24672 106.006 6.69228 106.321 7.26826C106.647 7.83336 106.81 8.49084 106.81 9.24069V13.3486C106.81 14.0984 106.647 14.7613 106.321 15.3373C106.006 15.9024 105.549 16.3425 104.952 16.6577C104.365 16.9728 103.686 17.1304 102.914 17.1304ZM102.914 16.136C103.74 16.136 104.403 15.8861 104.903 15.3862C105.403 14.8863 105.653 14.2234 105.653 13.3975V9.22438C105.653 8.39846 105.403 7.73555 104.903 7.23565C104.403 6.72489 103.74 6.4695 102.914 6.4695C102.099 6.4695 101.441 6.72489 100.942 7.23565C100.442 7.73555 100.192 8.39846 100.192 9.22438V13.3975C100.192 14.2234 100.442 14.8863 100.942 15.3862C101.441 15.8861 102.099 16.136 102.914 16.136ZM119.366 17.1467C118.605 17.1467 117.937 17 117.361 16.7066C116.785 16.4023 116.334 15.9785 116.008 15.4351C115.693 14.8809 115.535 14.2451 115.535 13.5279V9.04507C115.535 8.33869 115.693 7.71382 116.008 7.17045C116.334 6.62708 116.785 6.20869 117.361 5.91527C117.937 5.61098 118.605 5.45884 119.366 5.45884C120.127 5.45884 120.795 5.60555 121.371 5.89896C121.947 6.19238 122.393 6.60534 122.708 7.13785C123.034 7.67035 123.197 8.28436 123.197 8.97987C123.197 9.03421 123.181 9.07768 123.148 9.11028C123.115 9.14288 123.077 9.15918 123.034 9.15918L122.202 9.20808C122.094 9.20808 122.039 9.15918 122.039 9.06137V9.01247C122.039 8.24089 121.795 7.62688 121.306 7.17045C120.817 6.70315 120.17 6.4695 119.366 6.4695C118.562 6.4695 117.915 6.70315 117.426 7.17045C116.937 7.63775 116.693 8.25175 116.693 9.01247V13.5768C116.693 14.3375 116.937 14.9515 117.426 15.4188C117.915 15.8861 118.562 16.1197 119.366 16.1197C120.17 16.1197 120.817 15.8915 121.306 15.4351C121.795 14.9678 122.039 14.3484 122.039 13.5768V13.5442C122.039 13.4464 122.094 13.3975 122.202 13.3975L123.034 13.4464C123.143 13.4464 123.197 13.4953 123.197 13.5931C123.197 14.2995 123.034 14.9243 122.708 15.4677C122.393 16.0002 121.947 16.4132 121.371 16.7066C120.795 17 120.127 17.1467 119.366 17.1467ZM133.995 17C133.897 17 133.832 16.962 133.799 16.8859L131.403 11.8326C131.392 11.8 131.371 11.7837 131.338 11.7837H128.567C128.523 11.7837 128.502 11.8054 128.502 11.8489V16.837C128.502 16.9457 128.447 17 128.339 17H127.507C127.399 17 127.344 16.9457 127.344 16.837V5.75225C127.344 5.64358 127.399 5.58924 127.507 5.58924H131.729C132.664 5.58924 133.419 5.88266 133.995 6.4695C134.571 7.04547 134.859 7.80076 134.859 8.73535C134.859 9.49607 134.653 10.1427 134.24 10.6752C133.827 11.2077 133.267 11.55 132.561 11.7021C132.517 11.7239 132.506 11.7511 132.528 11.7837L134.973 16.8044C134.984 16.8261 134.989 16.8533 134.989 16.8859C134.989 16.962 134.946 17 134.859 17H133.995ZM128.567 6.59991C128.523 6.59991 128.502 6.62165 128.502 6.66512V10.7893C128.502 10.8328 128.523 10.8545 128.567 10.8545H131.599C132.229 10.8545 132.74 10.6589 133.131 10.2677C133.522 9.87643 133.718 9.36566 133.718 8.73535C133.718 8.10504 133.522 7.59428 133.131 7.20305C132.74 6.80096 132.229 6.59991 131.599 6.59991H128.567ZM139.037 17C138.928 17 138.874 16.9457 138.874 16.837V5.75225C138.874 5.64358 138.928 5.58924 139.037 5.58924H139.868C139.977 5.58924 140.031 5.64358 140.031 5.75225V16.837C140.031 16.9457 139.977 17 139.868 17H139.037ZM151.406 17C151.308 17 151.243 16.9565 151.211 16.8696L150.558 14.8157C150.548 14.7831 150.526 14.7668 150.493 14.7668H145.619C145.587 14.7668 145.565 14.7831 145.554 14.8157L144.902 16.8696C144.869 16.9565 144.804 17 144.706 17H143.826C143.707 17 143.663 16.9402 143.696 16.8207L147.298 5.71965C147.331 5.63271 147.396 5.58924 147.494 5.58924H148.602C148.7 5.58924 148.765 5.63271 148.798 5.71965L152.417 16.8207L152.433 16.8859C152.433 16.962 152.384 17 152.286 17H151.406ZM145.88 13.7398C145.869 13.7615 145.869 13.7833 145.88 13.805C145.902 13.8159 145.924 13.8213 145.945 13.8213H150.151C150.173 13.8213 150.189 13.8159 150.2 13.805C150.222 13.7833 150.227 13.7615 150.216 13.7398L148.097 7.08894C148.086 7.06721 148.07 7.05634 148.048 7.05634C148.026 7.05634 148.01 7.06721 147.999 7.08894L145.88 13.7398ZM161.904 5.58924C162.013 5.58924 162.067 5.64358 162.067 5.75225V6.4532C162.067 6.56188 162.013 6.61621 161.904 6.61621H158.709C158.665 6.61621 158.644 6.63795 158.644 6.68142V16.837C158.644 16.9457 158.589 17 158.481 17H157.649C157.541 17 157.486 16.9457 157.486 16.837V6.68142C157.486 6.63795 157.465 6.61621 157.421 6.61621H154.356C154.248 6.61621 154.193 6.56188 154.193 6.4532V5.75225C154.193 5.64358 154.248 5.58924 154.356 5.58924H161.904ZM166.017 17C165.909 17 165.854 16.9457 165.854 16.837V5.75225C165.854 5.64358 165.909 5.58924 166.017 5.58924H166.849C166.957 5.58924 167.012 5.64358 167.012 5.75225V16.837C167.012 16.9457 166.957 17 166.849 17H166.017ZM174.425 17C174.327 17 174.262 16.9565 174.23 16.8696L170.676 5.76856L170.66 5.70335C170.66 5.62728 170.709 5.58924 170.806 5.58924H171.687C171.784 5.58924 171.85 5.63271 171.882 5.71965L174.849 15.2721C174.86 15.2938 174.876 15.3047 174.898 15.3047C174.92 15.3047 174.936 15.2938 174.947 15.2721L177.914 5.71965C177.946 5.63271 178.011 5.58924 178.109 5.58924H178.973C179.093 5.58924 179.136 5.64901 179.104 5.76856L175.517 16.8696C175.485 16.9565 175.42 17 175.322 17H174.425ZM185.924 17.1304C185.152 17.1304 184.473 16.9728 183.886 16.6577C183.3 16.3425 182.843 15.9024 182.517 15.3373C182.202 14.7613 182.044 14.0984 182.044 13.3486V9.24069C182.044 8.49084 182.202 7.83336 182.517 7.26826C182.843 6.69228 183.3 6.24672 183.886 5.93157C184.473 5.61641 185.152 5.45884 185.924 5.45884C186.696 5.45884 187.375 5.61641 187.962 5.93157C188.559 6.24672 189.016 6.69228 189.331 7.26826C189.657 7.83336 189.82 8.49084 189.82 9.24069V13.3486C189.82 14.0984 189.657 14.7613 189.331 15.3373C189.016 15.9024 188.559 16.3425 187.962 16.6577C187.375 16.9728 186.696 17.1304 185.924 17.1304ZM185.924 16.136C186.75 16.136 187.413 15.8861 187.913 15.3862C188.413 14.8863 188.663 14.2234 188.663 13.3975V9.22438C188.663 8.39846 188.413 7.73555 187.913 7.23565C187.413 6.72489 186.75 6.4695 185.924 6.4695C185.109 6.4695 184.452 6.72489 183.952 7.23565C183.452 7.73555 183.202 8.39846 183.202 9.22438V13.3975C183.202 14.2234 183.452 14.8863 183.952 15.3862C184.452 15.8861 185.109 16.136 185.924 16.136ZM199.067 17C198.958 17 198.904 16.9457 198.904 16.837V5.75225C198.904 5.64358 198.958 5.58924 199.067 5.58924H202.914C203.99 5.58924 204.843 5.8718 205.473 6.4369C206.115 7.002 206.435 7.76816 206.435 8.73535V13.8539C206.435 14.8211 206.115 15.5872 205.473 16.1523C204.843 16.7174 203.99 17 202.914 17H199.067ZM200.061 15.9241C200.061 15.9676 200.083 15.9893 200.127 15.9893H202.963C203.669 15.9893 204.229 15.7829 204.642 15.3699C205.066 14.9569 205.278 14.4027 205.278 13.7072V8.89836C205.278 8.19198 205.071 7.63231 204.658 7.21935C204.245 6.80639 203.68 6.59991 202.963 6.59991H200.127C200.083 6.59991 200.061 6.62165 200.061 6.66512V15.9241ZM217.914 6.4369C217.914 6.54557 217.859 6.59991 217.751 6.59991H211.752C211.708 6.59991 211.687 6.62165 211.687 6.66512V10.6915C211.687 10.735 211.708 10.7567 211.752 10.7567H215.958C216.066 10.7567 216.121 10.811 216.121 10.9197V11.6043C216.121 11.713 216.066 11.7674 215.958 11.7674H211.752C211.708 11.7674 211.687 11.7891 211.687 11.8326V15.9241C211.687 15.9676 211.708 15.9893 211.752 15.9893H217.751C217.859 15.9893 217.914 16.0437 217.914 16.1523V16.837C217.914 16.9457 217.859 17 217.751 17H210.692C210.584 17 210.529 16.9457 210.529 16.837V5.75225C210.529 5.64358 210.584 5.58924 210.692 5.58924H217.751C217.859 5.58924 217.914 5.64358 217.914 5.75225V6.4369Z" fill="white"/>
</svg>
