<svg width="132" height="24" viewBox="0 0 132 24" fill="none" xmlns="http://www.w3.org/2000/svg">
<g clip-path="url(#clip0_9842_112)">
<path d="M82.6069 12.9984C82.626 12.9857 82.6475 12.9772 82.6701 12.9737C82.7762 12.9322 82.8753 12.8952 82.9613 12.8591C83.0146 12.8315 83.0701 12.8082 83.1271 12.7894C84.7576 12.0161 86.1241 10.3125 86.1241 8.51899C86.1241 4.75472 83.3253 3.57227 80.0511 3.57227H73.8711C73.9325 3.69395 74.2456 5.02983 74.2456 5.08097V21.6626H77.1067C77.1725 21.6632 77.2377 21.6506 77.2986 21.6256C77.3594 21.6005 77.4147 21.5635 77.4612 21.5167C77.5077 21.4699 77.5444 21.4142 77.5692 21.353C77.594 21.2918 77.6065 21.2262 77.6058 21.16V13.6015H78.9732C80.9852 13.6015 82.2324 13.1342 82.5377 13.0266C82.5473 13.0081 82.5789 13.001 82.6034 12.9984H82.6069ZM79.1907 11.1943H77.6119V6.04916H79.7424C81.2597 6.04916 82.5543 6.86567 82.5543 8.48813C82.5543 10.5885 81.1027 11.1916 79.1933 11.1916" fill="#D3D3D3"/>
<path d="M65.4433 3.57227H59.7422C59.8027 3.69307 60.1132 5.02983 60.1132 5.08097V21.6626H62.9778C63.1124 21.6643 63.2423 21.6124 63.339 21.5183C63.4358 21.4241 63.4916 21.2954 63.4944 21.16V14.3951H65.5021C68.828 14.3951 71.9926 12.7638 71.9926 8.98721C71.9926 4.90726 69.0043 3.57227 65.4407 3.57227H65.4433ZM65.5705 11.9993H63.504V6.02006H65.5836C67.4676 6.02006 68.4035 7.18399 68.4035 8.98721C68.4035 10.7428 67.3992 11.9993 65.5731 11.9993" fill="#D3D3D3"/>
<path d="M79.8145 14.9746L83.9631 21.6611H87.796L83.1316 14.457C82.0587 14.7994 80.9401 14.9749 79.8145 14.9773" fill="#D3D3D3"/>
<path d="M88.7696 5.08097V21.6582H91.6641C91.7984 21.6606 91.9281 21.6093 92.0248 21.5155C92.1215 21.4218 92.1773 21.2933 92.1798 21.1583V3.57227H88.4434C88.4548 3.69307 88.7705 5.02895 88.7705 5.08097" fill="#D3D3D3"/>
<path d="M104.971 14.0495C104.631 15.0194 104.561 15.9135 104.314 16.954C104.113 15.9267 103.972 14.9462 103.596 13.9489L99.7772 3.57227H95.0488C95.0567 3.69307 95.39 5.02895 95.39 5.08097V21.6477H97.6108C97.7397 21.6362 97.8597 21.5768 97.9474 21.4811C98.035 21.3853 98.0839 21.2602 98.0844 21.1301V9.38489C98.0844 8.78264 97.9643 8.17158 97.9529 7.60372C98.1537 8.19274 98.3283 8.78264 98.5388 9.38489L103.067 21.6626H104.892L109.288 9.38489C109.5 8.78264 109.673 8.19274 109.878 7.60372C109.802 8.19461 109.758 8.78922 109.747 9.38489V21.6477H112.607C112.736 21.6369 112.857 21.5778 112.945 21.482C113.033 21.3862 113.083 21.2607 113.084 21.1301V3.57227H108.742L104.971 14.0495Z" fill="#D3D3D3"/>
<path d="M123.351 3.30752C117.85 3.30752 114.818 7.30723 114.818 12.5917C114.818 17.8347 117.821 21.9384 123.326 21.9384C128.783 21.9384 132.002 17.9705 132.002 12.6534C132.002 7.23316 128.955 3.30664 123.352 3.30664L123.351 3.30752ZM123.428 19.5982C119.562 19.5982 118.44 15.7387 118.44 12.4956C118.44 9.30532 119.589 5.64157 123.384 5.64157C127.262 5.64157 128.369 9.52929 128.369 12.7363C128.369 15.9433 127.22 19.5982 123.428 19.5982Z" fill="#D3D3D3"/>
<path d="M1.33211 12.4418C1.33211 13.7804 2.24604 14.9249 3.83182 14.9249C4.35188 14.931 4.86494 14.8042 5.32288 14.5563V13.3104H3.42485V12.2681H6.52538V15.0677C5.78428 15.7474 4.81472 16.1198 3.81165 16.11C1.61628 16.11 -0.00195312 14.4567 -0.00195312 12.4286C-0.00195312 10.4005 1.58296 8.73047 3.78885 8.73047C4.82557 8.73047 5.61759 9.01616 6.37013 9.58843L5.78687 10.5716C5.08519 10.1016 4.48614 9.90763 3.82481 9.90763C2.22587 9.90763 1.33211 11.1439 1.33211 12.4418Z" fill="#D3D3D3"/>
<path d="M13.681 13.3004C13.803 14.0667 14.1889 14.9758 14.9414 14.9758C15.2325 14.9726 15.5117 14.8596 15.7238 14.6592L16.1808 15.5586C15.7975 15.924 15.2862 16.1224 14.7581 16.1106C13.0811 16.1106 12.5654 14.1892 12.4917 13.3718H11.291V15.9977H9.99023V8.8457H13.0601C14.4722 8.8457 15.2756 9.91882 15.2756 11.1445C15.2747 12.1867 14.6748 13.0465 13.681 13.3004ZM12.8574 12.3305C13.5284 12.3305 13.9556 11.8393 13.9556 11.1348C13.9556 10.4302 13.517 9.92852 12.8574 9.92852H11.291V12.3305H12.8574Z" fill="#D3D3D3"/>
<path d="M24.7559 8.8457V13.3216C24.7559 15.1495 23.435 16.1106 21.8799 16.1106C20.3248 16.1106 19.0039 15.1495 19.0039 13.3216V8.8457H20.3046V13.3216C20.3046 14.4344 21.0265 14.9863 21.8834 14.9863C22.7403 14.9863 23.4622 14.4344 23.4622 13.3216V8.8457H24.7559Z" fill="#D3D3D3"/>
<path d="M28.5254 15.9977V8.8457H31.5136C32.9363 8.8457 33.7388 9.90383 33.7388 11.1445C33.7388 12.3851 32.9258 13.3824 31.5136 13.3824H29.8261V15.9977H28.5254ZM31.311 12.3499C31.9917 12.3499 32.4092 11.8499 32.4092 11.1348C32.4092 10.3985 31.9917 9.9003 31.311 9.9003H29.8261V12.3516L31.311 12.3499Z" fill="#D3D3D3"/>
<path d="M40.2306 8.73438C42.2637 8.73438 43.9513 10.3895 43.9513 12.4228C43.9513 14.4562 42.2637 16.1113 40.2306 16.1113C38.1975 16.1113 36.5117 14.4562 36.5117 12.4228C36.5117 10.3895 38.1984 8.73438 40.2306 8.73438ZM40.2306 14.9262C41.5419 14.9262 42.6295 13.868 42.6295 12.4228C42.6295 10.9776 41.5419 9.91948 40.2306 9.91948C38.9194 9.91948 37.8326 10.982 37.8326 12.4228C37.8326 13.8636 38.9202 14.9262 40.2306 14.9262Z" fill="#D3D3D3"/>
<path d="M52.6799 0H52.0273V24H52.6799V0Z" fill="#D3D3D3"/>
</g>
<defs>
<clipPath id="clip0_9842_112">
<rect width="132" height="24" fill="white"/>
</clipPath>
</defs>
</svg>
