<svg width="132" height="24" viewBox="0 0 132 24" fill="none" xmlns="http://www.w3.org/2000/svg">
<g clip-path="url(#clip0_2457_65777)">
<path d="M82.606 12.9984C82.625 12.9857 82.6465 12.9772 82.6691 12.9737C82.7752 12.9322 82.8744 12.8952 82.9603 12.8591C83.0136 12.8315 83.0691 12.8082 83.1261 12.7894C84.7566 12.0161 86.1231 10.3125 86.1231 8.51899C86.1231 4.75472 83.3243 3.57227 80.0501 3.57227H73.8701C73.9315 3.69395 74.2446 5.02983 74.2446 5.08097V21.6626H77.1057C77.1715 21.6632 77.2367 21.6506 77.2976 21.6256C77.3585 21.6005 77.4138 21.5635 77.4602 21.5167C77.5067 21.4699 77.5434 21.4142 77.5682 21.353C77.5931 21.2918 77.6055 21.2262 77.6048 21.16V13.6015H78.9722C80.9842 13.6015 82.2315 13.1342 82.5367 13.0266C82.5463 13.0081 82.5779 13.001 82.6025 12.9984H82.606ZM79.1897 11.1943H77.6109V6.04916H79.7414C81.2587 6.04916 82.5533 6.86567 82.5533 8.48813C82.5533 10.5885 81.1018 11.1916 79.1923 11.1916" fill="#D3D3D3"/>
<path d="M65.4423 3.57227H59.7412C59.8017 3.69307 60.1122 5.02983 60.1122 5.08097V21.6626H62.9768C63.1115 21.6643 63.2413 21.6124 63.3381 21.5183C63.4348 21.4241 63.4907 21.2954 63.4934 21.16V14.3951H65.5011C68.827 14.3951 71.9916 12.7638 71.9916 8.98721C71.9916 4.90726 69.0033 3.57227 65.4397 3.57227H65.4423ZM65.5695 11.9993H63.5031V6.02006H65.5827C67.4667 6.02006 68.4025 7.18399 68.4025 8.98721C68.4025 10.7428 67.3982 11.9993 65.5721 11.9993" fill="#D3D3D3"/>
<path d="M79.8125 14.9746L83.9612 21.6611H87.7941L83.1297 14.457C82.0568 14.7994 80.9381 14.9749 79.8125 14.9773" fill="#D3D3D3"/>
<path d="M88.7696 5.08097V21.6582H91.6641C91.7984 21.6606 91.9281 21.6093 92.0248 21.5155C92.1215 21.4218 92.1773 21.2933 92.1798 21.1583V3.57227H88.4434C88.4548 3.69307 88.7705 5.02895 88.7705 5.08097" fill="#D3D3D3"/>
<path d="M104.971 14.0495C104.631 15.0194 104.561 15.9135 104.314 16.954C104.113 15.9267 103.972 14.9462 103.596 13.9489L99.7772 3.57227H95.0488C95.0567 3.69307 95.39 5.02895 95.39 5.08097V21.6477H97.6108C97.7397 21.6362 97.8597 21.5768 97.9474 21.4811C98.035 21.3853 98.0839 21.2602 98.0844 21.1301V9.38489C98.0844 8.78264 97.9643 8.17158 97.9529 7.60372C98.1537 8.19274 98.3283 8.78264 98.5388 9.38489L103.067 21.6626H104.892L109.288 9.38489C109.5 8.78264 109.673 8.19274 109.878 7.60372C109.802 8.19461 109.758 8.78922 109.747 9.38489V21.6477H112.607C112.736 21.6369 112.857 21.5778 112.945 21.482C113.033 21.3862 113.083 21.2607 113.084 21.1301V3.57227H108.742L104.971 14.0495Z" fill="#D3D3D3"/>
<path d="M123.35 3.30752C117.849 3.30752 114.817 7.30723 114.817 12.5917C114.817 17.8347 117.82 21.9384 123.325 21.9384C128.782 21.9384 132.001 17.9705 132.001 12.6534C132.001 7.23316 128.954 3.30664 123.351 3.30664L123.35 3.30752ZM123.427 19.5982C119.561 19.5982 118.439 15.7387 118.439 12.4956C118.439 9.30532 119.588 5.64157 123.383 5.64157C127.261 5.64157 128.368 9.52929 128.368 12.7363C128.368 15.9433 127.219 19.5982 123.427 19.5982Z" fill="#D3D3D3"/>
<path d="M1.33113 12.4418C1.33113 13.7804 2.24506 14.9249 3.83085 14.9249C4.3509 14.931 4.86397 14.8042 5.32191 14.5563V13.3104H3.42388V12.2681H6.5244V15.0677C5.7833 15.7474 4.81375 16.1198 3.81067 16.11C1.61531 16.11 -0.00292969 14.4567 -0.00292969 12.4286C-0.00292969 10.4005 1.58198 8.73047 3.78787 8.73047C4.82459 8.73047 5.61661 9.01616 6.36916 9.58843L5.78589 10.5716C5.08421 10.1016 4.48516 9.90763 3.82383 9.90763C2.22489 9.90763 1.33113 11.1439 1.33113 12.4418Z" fill="#D3D3D3"/>
<path d="M13.6801 13.3004C13.802 14.0667 14.1879 14.9758 14.9404 14.9758C15.2315 14.9726 15.5107 14.8596 15.7228 14.6592L16.1798 15.5586C15.7965 15.924 15.2852 16.1224 14.7571 16.1106C13.0801 16.1106 12.5644 14.1892 12.4907 13.3718H11.29V15.9977H9.98926V8.8457H13.0591C14.4712 8.8457 15.2746 9.91882 15.2746 11.1445C15.2737 12.1867 14.6738 13.0465 13.6801 13.3004ZM12.8565 12.3305C13.5274 12.3305 13.9546 11.8393 13.9546 11.1348C13.9546 10.4302 13.516 9.92852 12.8565 9.92852H11.29V12.3305H12.8565Z" fill="#D3D3D3"/>
<path d="M24.7539 8.8457V13.3216C24.7539 15.1495 23.433 16.1106 21.8779 16.1106C20.3229 16.1106 19.002 15.1495 19.002 13.3216V8.8457H20.3027V13.3216C20.3027 14.4344 21.0245 14.9863 21.8815 14.9863C22.7384 14.9863 23.4602 14.4344 23.4602 13.3216V8.8457H24.7539Z" fill="#D3D3D3"/>
<path d="M28.5234 15.9977V8.8457H31.5117C32.9343 8.8457 33.7369 9.90383 33.7369 11.1445C33.7369 12.3851 32.9238 13.3824 31.5117 13.3824H29.8242V15.9977H28.5234ZM31.3091 12.3499C31.9897 12.3499 32.4072 11.8499 32.4072 11.1348C32.4072 10.3985 31.9897 9.9003 31.3091 9.9003H29.8242V12.3516L31.3091 12.3499Z" fill="#D3D3D3"/>
<path d="M40.2306 8.73438C42.2637 8.73438 43.9513 10.3895 43.9513 12.4228C43.9513 14.4562 42.2637 16.1113 40.2306 16.1113C38.1975 16.1113 36.5117 14.4562 36.5117 12.4228C36.5117 10.3895 38.1984 8.73438 40.2306 8.73438ZM40.2306 14.9262C41.5419 14.9262 42.6295 13.868 42.6295 12.4228C42.6295 10.9776 41.5419 9.91948 40.2306 9.91948C38.9194 9.91948 37.8326 10.982 37.8326 12.4228C37.8326 13.8636 38.9202 14.9262 40.2306 14.9262Z" fill="#D3D3D3"/>
<path d="M52.6789 0H52.0264V24H52.6789V0Z" fill="#D3D3D3"/>
</g>
<defs>
<clipPath id="clip0_2457_65777">
<rect width="132" height="24" fill="white"/>
</clipPath>
</defs>
</svg>
