<svg width="295" height="115" viewBox="0 0 295 115" fill="none" xmlns="http://www.w3.org/2000/svg">
<path fill-rule="evenodd" clip-rule="evenodd" d="M22.6 89.32H0V1.32H59.8V20.08H22.6V36.72H54.88V55.48H22.6V89.32ZM20.6 38.72V18.08H57.8V3.32H2V87.32H20.6V53.48H52.88V38.72H20.6ZM59.3046 69.3053L59.3184 69.2925C61.8914 66.9101 65.1156 65.76 68.8372 65.76C72.487 65.76 75.6618 66.9151 78.2228 69.2803C80.8848 71.6633 82.2372 74.7244 82.2372 78.32C82.2372 81.8591 80.8672 84.8787 78.2092 87.2519L78.2059 87.2548C75.6396 89.536 72.4704 90.64 68.8372 90.64C65.1381 90.64 61.9242 89.5443 59.3485 87.2548L59.3192 87.2288L59.291 87.2017C56.8076 84.8138 55.5572 81.8082 55.5572 78.32C55.5572 74.7685 56.7959 71.7174 59.291 69.3183L59.3046 69.3053ZM76.8772 70.76C74.7172 68.76 72.0372 67.76 68.8372 67.76C65.5572 67.76 62.8372 68.76 60.6772 70.76C58.5972 72.76 57.5572 75.28 57.5572 78.32C57.5572 81.28 58.5972 83.76 60.6772 85.76C62.8372 87.68 65.5572 88.64 68.8372 88.64C72.0372 88.64 74.7172 87.68 76.8772 85.76C79.1172 83.76 80.2372 81.28 80.2372 78.32C80.2372 75.28 79.1172 72.76 76.8772 70.76ZM106.873 89.32H83.3606L117.303 1.32H138.161L172.606 89.32H148.858L142.95 73.84H112.545L106.873 89.32ZM105.476 87.32H86.2756L118.676 3.32H136.796L169.676 87.32H150.236L144.236 71.6V71.84H111.236V71.6L105.476 87.32ZM177.312 69.3053L177.326 69.2925C179.899 66.9101 183.123 65.76 186.845 65.76C190.495 65.76 193.669 66.915 196.23 69.2801C198.893 71.6631 200.245 74.7243 200.245 78.32C200.245 81.8591 198.875 84.8787 196.217 87.2519L196.214 87.2548C193.647 89.536 190.478 90.64 186.845 90.64C183.146 90.64 179.932 89.5443 177.356 87.2548L177.327 87.2288L177.299 87.2017C174.815 84.8138 173.565 81.8082 173.565 78.32C173.565 74.7685 174.804 71.7174 177.299 69.3183L177.312 69.3053ZM194.885 70.76C192.725 68.76 190.045 67.76 186.845 67.76C183.565 67.76 180.845 68.76 178.685 70.76C176.605 72.76 175.565 75.28 175.565 78.32C175.565 81.28 176.605 83.76 178.685 85.76C180.845 87.68 183.565 88.64 186.845 88.64C190.045 88.64 192.725 87.68 194.885 85.76C197.125 83.76 198.245 81.28 198.245 78.32C198.245 75.28 197.125 72.76 194.885 70.76ZM285.869 89.3847L293.256 106.159L291.877 107.095C285.077 111.712 277.647 114.04 269.634 114.04C261.22 114.04 254.123 111.587 248.502 106.572L248.496 106.567L248.491 106.562C243.388 101.938 240.466 96.2924 239.793 89.7009C229.687 87.5054 221.117 82.4181 214.132 74.4813L214.125 74.4733L214.118 74.4653C206.852 66.0293 203.194 56.2883 203.194 45.32C203.194 32.8598 207.692 22.1502 216.626 13.2992L216.633 13.2926C225.646 4.44651 236.509 0 249.114 0C261.642 0 272.426 4.44873 281.358 13.2958C290.372 22.1447 294.914 32.8552 294.914 45.32C294.914 55.5653 291.499 64.8479 284.742 73.1065C278.393 80.8655 270.638 86.1494 261.501 88.9013C261.861 90.6895 262.679 91.9269 263.854 92.7852L263.864 92.7929C265.594 94.0742 267.942 94.8 271.074 94.8C275.436 94.8 279.698 93.4618 283.891 90.6913L285.869 89.3847ZM259.314 87.44C268.754 84.96 276.714 79.76 283.194 71.84C289.674 63.92 292.914 55.08 292.914 45.32C292.914 33.4 288.594 23.2 279.954 14.72C271.394 6.24 261.114 2 249.114 2C237.034 2 226.674 6.24 218.034 14.72C209.474 23.2 205.194 33.4 205.194 45.32C205.194 55.8 208.674 65.08 215.634 73.16C222.674 81.16 231.354 86.12 241.674 88.04C241.994 94.76 244.714 100.44 249.834 105.08C255.034 109.72 261.634 112.04 269.634 112.04C277.234 112.04 284.274 109.84 290.754 105.44L284.994 92.36C284.423 92.7369 283.85 93.0898 283.275 93.4187C279.329 95.6729 275.263 96.8 271.074 96.8C267.634 96.8 264.834 96 262.674 94.4C260.594 92.88 259.474 90.56 259.314 87.44ZM116.276 56.6H138.956L127.796 23L116.276 56.6ZM127.766 29.2544L119.076 54.6H136.184L127.766 29.2544ZM232.533 27.8888C228.061 32.4375 225.794 38.1948 225.794 45.32C225.794 52.445 228.061 58.2023 232.533 62.751C237.116 67.3309 242.604 69.6 249.114 69.6C255.625 69.6 261.069 67.3302 265.568 62.7573C270.044 58.2077 272.314 52.4484 272.314 45.32C272.314 38.1916 270.044 32.4323 265.568 27.8827C261.069 23.3098 255.625 21.04 249.114 21.04C242.605 21.04 237.116 23.309 232.533 27.8888ZM231.114 26.48C226.234 31.44 223.794 37.72 223.794 45.32C223.794 52.92 226.234 59.2 231.114 64.16C236.074 69.12 242.074 71.6 249.114 71.6C256.154 71.6 262.114 69.12 266.994 64.16C271.874 59.2 274.314 52.92 274.314 45.32C274.314 37.72 271.874 31.44 266.994 26.48C262.114 21.52 256.154 19.04 249.114 19.04C242.074 19.04 236.074 21.52 231.114 26.48Z" fill="black"/>
</svg>
