<svg width="121" height="23" viewBox="0 0 121 23" fill="none" xmlns="http://www.w3.org/2000/svg">
<g clip-path="url(#clip0_9028_2063)">
<path d="M75.7227 12.416C75.7401 12.4043 75.7599 12.3966 75.7806 12.3934C75.8779 12.3554 75.9687 12.3214 76.0475 12.2883C76.0964 12.263 76.1472 12.2416 76.1995 12.2244C77.6941 11.5156 78.9468 9.95395 78.9468 8.30989C78.9468 4.85931 76.3812 3.77539 73.3798 3.77539H67.7148C67.7711 3.88693 68.0582 5.11149 68.0582 5.15837V20.3582H70.6808C70.7411 20.3588 70.8009 20.3472 70.8567 20.3243C70.9125 20.3013 70.9632 20.2674 71.0058 20.2245C71.0484 20.1816 71.082 20.1305 71.1048 20.0744C71.1275 20.0183 71.1389 19.9581 71.1383 19.8975V12.9689H72.3917C74.2361 12.9689 75.3794 12.5405 75.6592 12.4419C75.668 12.4249 75.697 12.4184 75.7195 12.416H75.7227ZM72.5911 10.7622H71.1439V6.04587H73.0968C74.4878 6.04587 75.6745 6.79435 75.6745 8.2816C75.6745 10.2069 74.3438 10.7598 72.5935 10.7598" fill="white"/>
<path d="M59.9897 3.77441H54.7637C54.8191 3.88515 55.1038 5.11052 55.1038 5.1574V20.3573H57.7296C57.8531 20.3588 57.9721 20.3112 58.0608 20.2249C58.1495 20.1386 58.2007 20.0206 58.2032 19.8965V13.6953H60.0436C63.0923 13.6953 65.9932 12.2 65.9932 8.73812C65.9932 4.99816 63.2539 3.77441 59.9873 3.77441H59.9897ZM60.1063 11.4992H58.212V6.01822H60.1183C61.8453 6.01822 62.7032 7.08517 62.7032 8.73812C62.7032 10.3474 61.7826 11.4992 60.1087 11.4992" fill="white"/>
<path d="M73.1621 14.2269L76.9651 20.3562H80.4786L76.2029 13.7524C75.2194 14.0663 74.1939 14.2271 73.1621 14.2293" fill="white"/>
<path d="M81.3733 5.15837V20.3542H84.0265C84.1496 20.3564 84.2686 20.3093 84.3572 20.2234C84.4459 20.1375 84.497 20.0197 84.4993 19.8959V3.77539H81.0742C81.0847 3.88613 81.3741 5.11068 81.3741 5.15837" fill="white"/>
<path d="M96.2246 13.3795C95.9126 14.2686 95.8483 15.0882 95.6216 16.042C95.4375 15.1003 95.3088 14.2015 94.9639 13.2873L91.4633 3.77539H87.1289C87.1361 3.88613 87.4417 5.11068 87.4417 5.15837V20.3445H89.4774C89.5956 20.334 89.7056 20.2796 89.7859 20.1918C89.8662 20.104 89.911 19.9893 89.9116 19.87V9.10363C89.9116 8.55157 89.8014 7.99142 89.791 7.47089C89.9751 8.01082 90.1351 8.55157 90.328 9.10363L94.4791 20.3582H96.1522L100.182 9.10363C100.376 8.55157 100.535 8.01082 100.722 7.47089C100.653 8.01254 100.613 8.55759 100.602 9.10363V20.3445H103.223C103.342 20.3346 103.453 20.2804 103.534 20.1926C103.615 20.1048 103.66 19.9897 103.661 19.87V3.77539H99.681L96.2246 13.3795Z" fill="white"/>
<path d="M113.071 3.53108C108.029 3.53108 105.25 7.19748 105.25 12.0416C105.25 16.8476 108.002 20.6094 113.049 20.6094C118.051 20.6094 121.002 16.9721 121.002 12.0981C121.002 7.12959 118.209 3.53027 113.073 3.53027L113.071 3.53108ZM113.142 18.4642C109.598 18.4642 108.57 14.9263 108.57 11.9535C108.57 9.02906 109.623 5.67062 113.102 5.67062C116.656 5.67062 117.671 9.23436 117.671 12.1741C117.671 15.1139 116.618 18.4642 113.142 18.4642Z" fill="white"/>
<path d="M1.22094 11.906C1.22094 13.133 2.05871 14.1821 3.51234 14.1821C3.98906 14.1877 4.45937 14.0715 4.87915 13.8443V12.7022H3.13929V11.7468H5.98144V14.3131C5.3021 14.9361 4.41333 15.2774 3.49385 15.2685C1.48143 15.2685 -0.00195312 13.7529 -0.00195312 11.8939C-0.00195312 10.0348 1.45088 8.50391 3.47295 8.50391C4.42328 8.50391 5.14929 8.76579 5.83913 9.29037L5.30447 10.1916C4.66126 9.7608 4.11213 9.58297 3.50591 9.58297C2.04021 9.58297 1.22094 10.7162 1.22094 11.906Z" fill="white"/>
<path d="M12.5414 12.6919C12.6532 13.3943 13.007 14.2276 13.6968 14.2276C13.9636 14.2247 14.2196 14.1212 14.414 13.9374L14.8328 14.7619C14.4815 15.0969 14.0128 15.2787 13.5288 15.2679C11.9915 15.2679 11.5188 13.5066 11.4512 12.7573H10.3505V15.1644H9.1582V8.6084H11.9722C13.2667 8.6084 14.0031 9.59209 14.0031 10.7156C14.0023 11.671 13.4524 12.4591 12.5414 12.6919ZM11.7865 11.8028C12.4015 11.8028 12.7931 11.3525 12.7931 10.7067C12.7931 10.0609 12.3911 9.60098 11.7865 9.60098H10.3505V11.8028H11.7865Z" fill="white"/>
<path d="M22.6926 8.6084V12.7113C22.6926 14.3869 21.4817 15.2679 20.0562 15.2679C18.6307 15.2679 17.4199 14.3869 17.4199 12.7113V8.6084H18.6123V12.7113C18.6123 13.7313 19.274 14.2373 20.0595 14.2373C20.845 14.2373 21.5067 13.7313 21.5067 12.7113V8.6084H22.6926Z" fill="white"/>
<path d="M26.1465 15.1644V8.6084H28.8857C30.1898 8.6084 30.9255 9.57835 30.9255 10.7156C30.9255 11.8529 30.1802 12.767 28.8857 12.767H27.3388V15.1644H26.1465ZM28.7 11.8205C29.3239 11.8205 29.7066 11.3622 29.7066 10.7067C29.7066 10.0318 29.3239 9.57511 28.7 9.57511H27.3388V11.8222L28.7 11.8205Z" fill="white"/>
<path d="M36.8797 8.50635C38.7434 8.50635 40.2903 10.0235 40.2903 11.8874C40.2903 13.7513 38.7434 15.2685 36.8797 15.2685C35.016 15.2685 33.4707 13.7513 33.4707 11.8874C33.4707 10.0235 35.0168 8.50635 36.8797 8.50635ZM36.8797 14.1821C38.0817 14.1821 39.0786 13.2122 39.0786 11.8874C39.0786 10.5626 38.0817 9.59269 36.8797 9.59269C35.6777 9.59269 34.6815 10.5667 34.6815 11.8874C34.6815 13.2082 35.6785 14.1821 36.8797 14.1821Z" fill="white"/>
<path d="M48.2896 0.5H47.6914V22.5H48.2896V0.5Z" fill="white"/>
</g>
<defs>
<clipPath id="clip0_9028_2063">
<rect width="121" height="22" fill="white" transform="translate(0 0.5)"/>
</clipPath>
</defs>
</svg>
