<svg width="67" height="66" viewBox="0 0 67 66" fill="none" xmlns="http://www.w3.org/2000/svg">
<circle cx="33.2344" cy="33" r="33" fill="#121213"/>
<path d="M33.785 35.63L40.685 31C40.8354 30.901 41.0098 30.8444 41.1897 30.8362C41.3696 30.828 41.5483 30.8686 41.7071 30.9536C41.8658 31.0386 41.9987 31.1649 42.0916 31.3192C42.1845 31.4734 42.2341 31.6499 42.235 31.83V41C42.235 41.2652 42.1296 41.5196 41.9421 41.7071C41.7546 41.8946 41.5002 42 41.235 42H25.235C24.9698 42 24.7154 41.8946 24.5279 41.7071C24.3404 41.5196 24.235 41.2652 24.235 41V31.87C24.2285 31.6865 24.2727 31.5048 24.3626 31.3448C24.4526 31.1848 24.5848 31.0526 24.7449 30.9627C24.905 30.8729 25.0867 30.8288 25.2702 30.8354C25.4536 30.842 25.6318 30.8989 25.785 31L32.685 35.59C32.8443 35.7035 33.0335 35.7679 33.229 35.775C33.4245 35.7821 33.6178 35.7317 33.785 35.63ZM32.685 35.63C32.8483 35.7375 33.0395 35.7948 33.235 35.7948C33.4305 35.7948 33.6217 35.7375 33.785 35.63L39.235 32V24H27.235V32L32.685 35.63Z" stroke="#FEDF00" stroke-width="2" stroke-linecap="round" stroke-linejoin="round"/>
</svg>
