<svg width="132" height="24" viewBox="0 0 132 24" fill="none" xmlns="http://www.w3.org/2000/svg">
<g clip-path="url(#clip0_2967_109)">
<path d="M82.6069 12.9994C82.626 12.9866 82.6475 12.9782 82.6701 12.9747C82.7762 12.9332 82.8753 12.8962 82.9613 12.86C83.0146 12.8324 83.0701 12.8091 83.1271 12.7904C84.7576 12.0171 86.1241 10.3135 86.1241 8.51997C86.1241 4.7557 83.3253 3.57324 80.0511 3.57324H73.8711C73.9325 3.69493 74.2456 5.03081 74.2456 5.08195V21.6636H77.1067C77.1725 21.6642 77.2377 21.6516 77.2986 21.6266C77.3594 21.6015 77.4147 21.5645 77.4612 21.5177C77.5077 21.4709 77.5444 21.4152 77.5692 21.354C77.594 21.2927 77.6065 21.2271 77.6058 21.161V13.6025H78.9732C80.9852 13.6025 82.2324 13.1352 82.5377 13.0276C82.5473 13.0091 82.5789 13.002 82.6034 12.9994H82.6069ZM79.1907 11.1953H77.6119V6.05013H79.7424C81.2597 6.05013 82.5543 6.86665 82.5543 8.48911C82.5543 10.5895 81.1027 11.1926 79.1933 11.1926" fill="white"/>
<path d="M65.4433 3.57324H59.7422C59.8027 3.69404 60.1132 5.03081 60.1132 5.08195V21.6636H62.9778C63.1124 21.6653 63.2423 21.6134 63.339 21.5193C63.4358 21.4251 63.4916 21.2964 63.4944 21.161V14.3961H65.5021C68.828 14.3961 71.9926 12.7648 71.9926 8.98819C71.9926 4.90824 69.0043 3.57324 65.4407 3.57324H65.4433ZM65.5705 12.0003H63.504V6.02104H65.5836C67.4676 6.02104 68.4035 7.18497 68.4035 8.98819C68.4035 10.7438 67.3992 12.0003 65.5731 12.0003" fill="white"/>
<path d="M79.8125 14.9746L83.9612 21.6611H87.7941L83.1297 14.457C82.0568 14.7994 80.9381 14.9749 79.8125 14.9773" fill="white"/>
<path d="M88.7677 5.08195V21.6592H91.6621C91.7964 21.6616 91.9262 21.6102 92.0229 21.5165C92.1196 21.4228 92.1753 21.2943 92.1778 21.1593V3.57324H88.4414C88.4528 3.69404 88.7686 5.02993 88.7686 5.08195" fill="white"/>
<path d="M104.969 14.0504C104.629 15.0204 104.559 15.9145 104.312 16.955C104.111 15.9277 103.97 14.9472 103.594 13.9499L99.7753 3.57324H95.0469C95.0548 3.69404 95.3881 5.02993 95.3881 5.08195V21.6486H97.6089C97.7378 21.6372 97.8578 21.5778 97.9454 21.4821C98.033 21.3863 98.0819 21.2611 98.0825 21.131V9.38586C98.0825 8.78362 97.9623 8.17255 97.9509 7.60469C98.1518 8.19371 98.3263 8.78362 98.5368 9.38586L103.065 21.6636H104.89L109.287 9.38586C109.498 8.78362 109.672 8.19371 109.876 7.60469C109.8 8.19558 109.757 8.79019 109.745 9.38586V21.6486H112.605C112.734 21.6378 112.855 21.5787 112.943 21.483C113.031 21.3872 113.081 21.2616 113.082 21.131V3.57324H108.74L104.969 14.0504Z" fill="white"/>
<path d="M123.349 3.30667C117.849 3.30667 114.816 7.30638 114.816 12.5908C114.816 17.8338 117.819 21.9376 123.324 21.9376C128.781 21.9376 132 17.9696 132 12.6525C132 7.23231 128.953 3.30579 123.35 3.30579L123.349 3.30667ZM123.426 19.5974C119.56 19.5974 118.438 15.7379 118.438 12.4947C118.438 9.30446 119.587 5.64071 123.382 5.64071C127.26 5.64071 128.367 9.52843 128.367 12.7354C128.367 15.9424 127.218 19.5974 123.426 19.5974Z" fill="white"/>
<path d="M1.33015 12.4427C1.33015 13.7812 2.24409 14.9257 3.82987 14.9257C4.34992 14.9318 4.86299 14.805 5.32093 14.5571V13.3112H3.4229V12.269H6.52343V15.0686C5.78233 15.7482 4.81277 16.1206 3.8097 16.1108C1.61433 16.1108 -0.00390625 14.4575 -0.00390625 12.4294C-0.00390625 10.4014 1.581 8.73129 3.78689 8.73129C4.82362 8.73129 5.61563 9.01698 6.36818 9.58925L5.78491 10.5724C5.08324 10.1024 4.48418 9.90845 3.82285 9.90845C2.22391 9.90845 1.33015 11.1447 1.33015 12.4427Z" fill="white"/>
<path d="M13.6791 13.3006C13.801 14.0668 14.1869 14.9759 14.9395 14.9759C15.2305 14.9728 15.5098 14.8598 15.7218 14.6594L16.1788 15.5588C15.7956 15.9242 15.2842 16.1226 14.7562 16.1108C13.0792 16.1108 12.5634 14.1894 12.4897 13.372H11.289V15.9979H9.98828V8.84589H13.0581C14.4702 8.84589 15.2736 9.919 15.2736 11.1447C15.2728 12.1869 14.6728 13.0466 13.6791 13.3006ZM12.8555 12.3306C13.5265 12.3306 13.9536 11.8395 13.9536 11.135C13.9536 10.4304 13.5151 9.9287 12.8555 9.9287H11.289V12.3306H12.8555Z" fill="white"/>
<path d="M24.752 8.84589V13.3217C24.752 15.1497 23.4311 16.1108 21.876 16.1108C20.3209 16.1108 19 15.1497 19 13.3217V8.84589H20.3007V13.3217C20.3007 14.4345 21.0226 14.9865 21.8795 14.9865C22.7364 14.9865 23.4583 14.4345 23.4583 13.3217V8.84589H24.752Z" fill="white"/>
<path d="M28.5234 15.9979V8.84589H31.5117C32.9343 8.84589 33.7369 9.90401 33.7369 11.1447C33.7369 12.3853 32.9238 13.3826 31.5117 13.3826H29.8242V15.9979H28.5234ZM31.3091 12.35C31.9897 12.35 32.4072 11.8501 32.4072 11.135C32.4072 10.3987 31.9897 9.90048 31.3091 9.90048H29.8242V12.3518L31.3091 12.35Z" fill="white"/>
<path d="M40.2306 8.73438C42.2637 8.73438 43.9513 10.3895 43.9513 12.4228C43.9513 14.4562 42.2637 16.1113 40.2306 16.1113C38.1975 16.1113 36.5117 14.4562 36.5117 12.4228C36.5117 10.3895 38.1984 8.73438 40.2306 8.73438ZM40.2306 14.9262C41.5419 14.9262 42.6295 13.868 42.6295 12.4228C42.6295 10.9776 41.5419 9.91948 40.2306 9.91948C38.9194 9.91948 37.8326 10.982 37.8326 12.4228C37.8326 13.8636 38.9202 14.9262 40.2306 14.9262Z" fill="white"/>
<path d="M52.676 0H52.0234V24H52.676V0Z" fill="white"/>
</g>
<defs>
<clipPath id="clip0_2967_109">
<rect width="132" height="24" fill="white"/>
</clipPath>
</defs>
</svg>
