<svg width="359" height="125" viewBox="0 0 359 125" fill="none" xmlns="http://www.w3.org/2000/svg">
<path d="M215.457 89.8901V23.0901H210.781L183.966 62.5975L157.15 23.0901H152.474V89.8901H157.246V31.8695L183.679 70.3272H184.061L210.495 31.8695V89.8901H215.457ZM282.559 71.6632V71.4724C282.559 69.1821 282.145 67.1781 281.318 65.4604C280.491 63.6791 279.378 62.1522 277.978 60.8798C276.642 59.5438 275.052 58.4623 273.207 57.6352C271.362 56.7446 269.453 56.0448 267.481 55.5358C268.817 54.9632 270.153 54.2634 271.489 53.4364C272.889 52.5457 274.129 51.4642 275.211 50.1918C276.292 48.9194 277.151 47.4244 277.787 45.7067C278.487 43.989 278.837 41.985 278.837 39.6947V39.5038C278.837 37.0227 278.296 34.7642 277.215 32.7284C276.197 30.6926 274.734 28.9749 272.825 27.5752C270.98 26.112 268.722 24.9987 266.05 24.2352C263.378 23.4718 260.419 23.0901 257.175 23.0901H229.596V89.8901H258.606C262.233 89.8901 265.509 89.4766 268.435 88.6495C271.362 87.7589 273.875 86.5501 275.974 85.0232C278.074 83.4328 279.696 81.5242 280.841 79.2975C281.986 77.0072 282.559 74.4625 282.559 71.6632ZM273.779 40.1718C273.779 42.3985 273.334 44.3707 272.443 46.0884C271.616 47.8061 270.439 49.2375 268.913 50.3827C267.386 51.5278 265.573 52.4185 263.473 53.0547C261.374 53.6272 259.083 53.9135 256.602 53.9135H234.558V27.6707H257.079C262.487 27.6707 266.622 28.8158 269.485 31.1061C272.348 33.3328 273.779 36.2911 273.779 39.981V40.1718ZM277.501 71.6632C277.501 75.8621 275.815 79.2021 272.443 81.6832C269.072 84.1008 264.523 85.3095 258.797 85.3095H234.558V58.4941H257.175C263.791 58.4941 268.817 59.6392 272.253 61.9295C275.752 64.1562 277.501 67.3372 277.501 71.4724V71.6632ZM354.004 89.8901L322.895 22.613H318.123L287.013 89.8901H292.167L300.66 71.1861H340.072L348.565 89.8901H354.004ZM337.972 66.701H302.759L320.413 28.0524L337.972 66.701Z" fill="white"/>
<path d="M104.669 23.0902H89.3052L75.4681 68.3234L60.4858 22.8994H47.8892L32.9069 68.3234L19.0698 23.0902H3.32407L26.1315 90.3674H38.9189L53.9967 46.6611L69.0744 90.3674H81.8618L104.669 23.0902Z" fill="white"/>
<path d="M124.417 22.8845L91.7196 91.2307H101.241L133.938 22.8845H124.417Z" fill="#FEDF00"/>
<path d="M133.294 22.8845L100.597 91.2307H110.118L142.815 22.8845H133.294Z" fill="#217500"/>
</svg>
