<svg width="132" height="24" viewBox="0 0 132 24" fill="none" xmlns="http://www.w3.org/2000/svg">
<g clip-path="url(#clip0_10146_18763)">
<path d="M82.6065 12.9991C82.6255 12.9863 82.647 12.9779 82.6696 12.9744C82.7757 12.9329 82.8748 12.8959 82.9608 12.8597C83.0141 12.8321 83.0696 12.8088 83.1266 12.7901C84.7571 12.0168 86.1236 10.3132 86.1236 8.51966C86.1236 4.75539 83.3248 3.57294 80.0506 3.57294H73.8706C73.932 3.69462 74.2451 5.0305 74.2451 5.08165V21.6633H77.1062C77.172 21.6639 77.2372 21.6513 77.2981 21.6262C77.359 21.6012 77.4142 21.5642 77.4607 21.5174C77.5072 21.4706 77.5439 21.4149 77.5687 21.3537C77.5935 21.2924 77.606 21.2268 77.6053 21.1607V13.6022H78.9727C80.9847 13.6022 82.2319 13.1348 82.5372 13.0273C82.5468 13.0088 82.5784 13.0017 82.603 12.9991H82.6065ZM79.1902 11.195H77.6114V6.04983H79.7419C81.2592 6.04983 82.5538 6.86635 82.5538 8.4888C82.5538 10.5892 81.1022 11.1923 79.1928 11.1923" fill="#D3D3D3"/>
<path d="M65.4426 3.57294H59.7415C59.802 3.69374 60.1125 5.0305 60.1125 5.08165V21.6633H62.9771C63.1117 21.665 63.2415 21.6131 63.3383 21.5189C63.4351 21.4248 63.4909 21.2961 63.4937 21.1607V14.3958H65.5013C68.8273 14.3958 71.9918 12.7645 71.9918 8.98788C71.9918 4.90794 69.0036 3.57294 65.4399 3.57294H65.4426ZM65.5697 12H63.5033V6.02073H65.5829C67.4669 6.02073 68.4028 7.18467 68.4028 8.98788C68.4028 10.7435 67.3985 12 65.5724 12" fill="#D3D3D3"/>
<path d="M79.8129 14.9751L83.9615 21.6615H87.7945L83.13 14.4575C82.0572 14.7999 80.9385 14.9753 79.8129 14.9777" fill="#D3D3D3"/>
<path d="M88.7698 5.08165V21.6589H91.6642C91.7985 21.6613 91.9282 21.6099 92.0249 21.5162C92.1216 21.4225 92.1774 21.294 92.1799 21.1589V3.57294H88.4435C88.4549 3.69374 88.7706 5.02962 88.7706 5.08165" fill="#D3D3D3"/>
<path d="M104.971 14.0501C104.631 15.0201 104.561 15.9142 104.314 16.9547C104.113 15.9274 103.972 14.9469 103.596 13.9496L99.7772 3.57294H95.0488C95.0567 3.69374 95.39 5.02962 95.39 5.08165V21.6483H97.6108C97.7397 21.6369 97.8597 21.5775 97.9474 21.4818C98.035 21.386 98.0839 21.2608 98.0844 21.1307V9.38556C98.0844 8.78331 97.9643 8.17225 97.9529 7.60439C98.1537 8.19341 98.3283 8.78331 98.5388 9.38556L103.067 21.6633H104.892L109.288 9.38556C109.5 8.78331 109.673 8.19341 109.878 7.60439C109.802 8.19528 109.758 8.78989 109.747 9.38556V21.6483H112.607C112.736 21.6375 112.857 21.5784 112.945 21.4827C113.033 21.3869 113.083 21.2613 113.084 21.1307V3.57294H108.742L104.971 14.0501Z" fill="#D3D3D3"/>
<path d="M123.35 3.30667C117.85 3.30667 114.818 7.30638 114.818 12.5908C114.818 17.8338 117.82 21.9376 123.325 21.9376C128.783 21.9376 132.002 17.9696 132.002 12.6525C132.002 7.23231 128.955 3.30579 123.352 3.30579L123.35 3.30667ZM123.427 19.5974C119.561 19.5974 118.439 15.7379 118.439 12.4947C118.439 9.30446 119.588 5.64071 123.383 5.64071C127.261 5.64071 128.368 9.52843 128.368 12.7354C128.368 15.9424 127.219 19.5974 123.427 19.5974Z" fill="#D3D3D3"/>
<path d="M1.33137 12.4427C1.33137 13.7812 2.24531 14.9257 3.83109 14.9257C4.35114 14.9318 4.86421 14.805 5.32215 14.5571V13.3112H3.42412V12.269H6.52465V15.0686C5.78355 15.7482 4.81399 16.1206 3.81092 16.1108C1.61555 16.1108 -0.00268555 14.4575 -0.00268555 12.4294C-0.00268555 10.4014 1.58222 8.73129 3.78811 8.73129C4.82484 8.73129 5.61685 9.01698 6.3694 9.58925L5.78613 10.5724C5.08446 10.1024 4.4854 9.90845 3.82408 9.90845C2.22513 9.90845 1.33137 11.1447 1.33137 12.4427Z" fill="#D3D3D3"/>
<path d="M13.6799 13.3006C13.8019 14.0668 14.1878 14.9759 14.9403 14.9759C15.2314 14.9728 15.5106 14.8598 15.7227 14.6594L16.1797 15.5588C15.7964 15.9242 15.2851 16.1226 14.757 16.1108C13.08 16.1108 12.5643 14.1894 12.4906 13.372H11.2899V15.9979H9.98914V8.84589H13.059C14.4711 8.84589 15.2745 9.919 15.2745 11.1447C15.2736 12.1869 14.6737 13.0466 13.6799 13.3006ZM12.8563 12.3306C13.5273 12.3306 13.9545 11.8395 13.9545 11.135C13.9545 10.4304 13.5159 9.9287 12.8563 9.9287H11.2899V12.3306H12.8563Z" fill="#D3D3D3"/>
<path d="M24.7542 8.84589V13.3217C24.7542 15.1497 23.4333 16.1108 21.8782 16.1108C20.3231 16.1108 19.0022 15.1497 19.0022 13.3217V8.84589H20.3029V13.3217C20.3029 14.4345 21.0248 14.9865 21.8817 14.9865C22.7386 14.9865 23.4605 14.4345 23.4605 13.3217V8.84589H24.7542Z" fill="#D3D3D3"/>
<path d="M28.5239 15.9979V8.84589H31.5122C32.9348 8.84589 33.7374 9.90401 33.7374 11.1447C33.7374 12.3853 32.9243 13.3826 31.5122 13.3826H29.8247V15.9979H28.5239ZM31.3096 12.35C31.9902 12.35 32.4077 11.8501 32.4077 11.135C32.4077 10.3987 31.9902 9.90048 31.3096 9.90048H29.8247V12.3518L31.3096 12.35Z" fill="#D3D3D3"/>
<path d="M40.2305 8.73392C42.2636 8.73392 43.9511 10.389 43.9511 12.4224C43.9511 14.4557 42.2636 16.1108 40.2305 16.1108C38.1974 16.1108 36.5116 14.4557 36.5116 12.4224C36.5116 10.389 38.1983 8.73392 40.2305 8.73392ZM40.2305 14.9257C41.5417 14.9257 42.6293 13.8676 42.6293 12.4224C42.6293 10.9771 41.5417 9.91902 40.2305 9.91902C38.9192 9.91902 37.8325 10.9815 37.8325 12.4224C37.8325 13.8632 38.9201 14.9257 40.2305 14.9257Z" fill="#D3D3D3"/>
<path d="M52.679 0H52.0265V24H52.679V0Z" fill="#D3D3D3"/>
</g>
<defs>
<clipPath id="clip0_10146_18763">
<rect width="132" height="24" fill="white"/>
</clipPath>
</defs>
</svg>
