<svg width="24" height="24" viewBox="0 0 24 24" fill="none" xmlns="http://www.w3.org/2000/svg">
<path fill-rule="evenodd" clip-rule="evenodd" d="M0 3C0 1.34315 1.34315 0 3 0H21C22.6569 0 24 1.34315 24 3V21C24 22.6569 22.6569 24 21 24H3C1.34315 24 0 22.6569 0 21V3Z" fill="#313338"/>
<path d="M9.1039 10.6667V8.66667C9.1039 7.194 10.3599 6 11.9091 6C13.4583 6 14.7143 7.194 14.7143 8.66667V10.6667M14.7143 10.6667H8.4026C7.62766 10.6667 7 11.2633 7 12V16.6667C7 17.4033 7.62766 18 8.4026 18H15.4156C16.1905 18 16.8182 17.4033 16.8182 16.6667V12C16.8182 11.2633 16.1905 10.6667 15.4156 10.6667H14.7143Z" stroke="white" stroke-width="1.5" stroke-linecap="round" stroke-linejoin="round"/>
</svg>
